<svg xmlns="http://www.w3.org/2000/svg" width="16.037" height="16.037" viewBox="0 0 16.037 16.037"><defs><style>.a{fill:#212121;}</style></defs><g transform="translate(0 0)"><path class="a" d="M14.873,5.97l-.782-.133c-.07-.194-.148-.384-.235-.569l.461-.644a1.4,1.4,0,0,0-.151-1.806l-.94-.94a1.4,1.4,0,0,0-1.8-.151l-.647.461a6.445,6.445,0,0,0-.607-.25l-.129-.766A1.4,1.4,0,0,0,8.654,0H7.326A1.4,1.4,0,0,0,5.942,1.17l-.136.8q-.288.105-.567.239L4.6,1.747A1.4,1.4,0,0,0,2.8,1.9l-.942.939A1.4,1.4,0,0,0,1.7,4.643L2.17,5.3c-.086.186-.164.377-.232.571L1.171,6A1.4,1.4,0,0,0,0,7.386V8.713A1.4,1.4,0,0,0,1.17,10.1l.8.136c.07.192.15.381.239.567l-.456.634A1.4,1.4,0,0,0,1.9,13.24l.94.94a1.4,1.4,0,0,0,1.8.151l.657-.468c.173.08.352.154.536.22l.13.782a1.4,1.4,0,0,0,1.384,1.171H8.682a1.4,1.4,0,0,0,1.384-1.17l.133-.782c.194-.07.384-.148.569-.235l.642.459a1.4,1.4,0,0,0,1.808-.15l.94-.94a1.4,1.4,0,0,0,.151-1.806l-.461-.647c.089-.189.168-.379.236-.568l.781-.13a1.4,1.4,0,0,0,1.171-1.384V7.357A1.385,1.385,0,0,0,14.873,5.97ZM15.1,8.682a.462.462,0,0,1-.386.457l-1.036.173a.506.506,0,0,0-.4.352,5.494,5.494,0,0,1-.375.905.506.506,0,0,0,.037.53l.61.857a.463.463,0,0,1-.05.6l-.94.94a.462.462,0,0,1-.6.051l-.853-.61a.506.506,0,0,0-.532-.037,5.533,5.533,0,0,1-.907.375.506.506,0,0,0-.349.4L9.14,14.71a.462.462,0,0,1-.458.387H7.351a.462.462,0,0,1-.457-.386l-.173-1.036a.507.507,0,0,0-.349-.4,5.5,5.5,0,0,1-.878-.361.507.507,0,0,0-.529.037l-.869.618a.444.444,0,0,1-.265.085.454.454,0,0,1-.327-.137l-.941-.941a.459.459,0,0,1-.05-.594l.607-.844a.506.506,0,0,0,.036-.537,5.373,5.373,0,0,1-.38-.9.507.507,0,0,0-.4-.348l-1.05-.179A.463.463,0,0,1,.94,8.713V7.386a.463.463,0,0,1,.387-.458L2.35,6.755a.506.506,0,0,0,.4-.353,5.417,5.417,0,0,1,.369-.908.507.507,0,0,0-.037-.529L2.467,4.1a.462.462,0,0,1,.05-.6l.943-.94,0,0a.45.45,0,0,1,.324-.134.455.455,0,0,1,.268.085l.848.61a.505.505,0,0,0,.537.036,5.371,5.371,0,0,1,.9-.38.507.507,0,0,0,.348-.4l.179-1.05A.462.462,0,0,1,7.326.939H8.654a.463.463,0,0,1,.458.387L9.284,2.35a.506.506,0,0,0,.354.4,5.468,5.468,0,0,1,.941.387.507.507,0,0,0,.531-.037l.859-.612a.443.443,0,0,1,.265-.085.454.454,0,0,1,.327.137l.941.941a.459.459,0,0,1,.049.594l-.611.854a.507.507,0,0,0-.037.532,5.53,5.53,0,0,1,.375.907.506.506,0,0,0,.4.349l1.036.176h0a.451.451,0,0,1,.38.451Zm0,0"/><path class="a" d="M159.571,156.453a3.118,3.118,0,1,0,3.118,3.118A3.121,3.121,0,0,0,159.571,156.453Zm0,5.3a2.178,2.178,0,1,1,2.178-2.178A2.181,2.181,0,0,1,159.571,161.749Zm0,0" transform="translate(-151.553 -151.553)"/></g></svg>