<svg xmlns="http://www.w3.org/2000/svg" width="20.501" height="20.5" viewBox="0 0 20.501 20.5">
  <g id="layer2" transform="translate(0.251 0.25)">
    <path id="path2624" d="M11.38,0a.774.774,0,0,0-.388.124L1.722,6.454c-.788.522.059,1.523.847,1l8.847-6.046,8.852,6.37c.744.492,1.6-.509.853-1L11.845.125A.779.779,0,0,0,11.38,0Zm.037,4.486a.746.746,0,0,0-.424.124L2.14,10.486a.6.6,0,0,0-.282.5v8.392A.672.672,0,0,0,2.569,20H8.6a.672.672,0,0,0,.711-.628l-.021-4.99h4.254v4.993a.669.669,0,0,0,.706.624h6.016a.672.672,0,0,0,.711-.624V10.984a.6.6,0,0,0-.282-.5L11.845,4.611a.742.742,0,0,0-.429-.124Zm0,1.406,8.146,5.4v7.45h-4.6V13.755a.672.672,0,0,0-.711-.623H8.587a.672.672,0,0,0-.713.628L7.9,18.748H3.276V11.293Z" transform="translate(-1.408 0)" fill="#212121" stroke="#212121" stroke-width="0.5"/>
  </g>
</svg>
