<svg xmlns="http://www.w3.org/2000/svg" width="23.002" height="24" viewBox="0 0 23.002 24">
  <g id="Group_13679" data-name="Group 13679" transform="translate(-2.998 2)">
    <g id="Group_13675" data-name="Group 13675" transform="translate(5)">
      <g id="Group_10849" data-name="Group 10849">
        <g id="Path_7905" data-name="Path 7905" transform="translate(-185.163 -451.353)" fill="rgba(255,255,255,0)">
          <path d="M 194.162841796875 472.3528442382812 C 192.4650573730469 472.3528442382812 190.9167175292969 471.3379516601562 190.2182769775391 469.7673034667969 L 189.5581665039062 468.2828979492188 L 191.1808013916016 468.3621826171875 C 192.2597045898438 468.4149169921875 193.2072601318359 468.439453125 194.162841796875 468.439453125 C 195.1198425292969 468.439453125 196.0673828125 468.4149169921875 197.1448211669922 468.3621826171875 L 198.7676239013672 468.2828063964844 L 198.1074066162109 469.767333984375 C 197.4089202880859 471.3379821777344 195.8605804443359 472.3528442382812 194.162841796875 472.3528442382812 Z" stroke="none"/>
          <path d="M 191.1320037841797 469.3609924316406 C 191.6514587402344 470.5291442871094 192.8033447265625 471.3528442382812 194.162841796875 471.3528442382812 C 195.5223083496094 471.3528442382812 196.6741943359375 470.5291442871094 197.1936950683594 469.3609924316406 C 196.2350769042969 469.4078979492188 195.2381896972656 469.439453125 194.162841796875 469.439453125 C 193.0875244140625 469.439453125 192.0906372070312 469.4078369140625 191.1320037841797 469.3609924316406 M 200.3415374755859 467.20458984375 L 199.0211334228516 470.1737060546875 C 198.1622619628906 472.1049499511719 196.2552642822266 473.3528442382812 194.162841796875 473.3528442382812 C 192.0703582763672 473.3528442382812 190.1633605957031 472.1049194335938 189.3045349121094 470.1736450195312 L 187.9843444824219 467.2048034667969 L 191.2296142578125 467.3633728027344 C 192.2918548583984 467.415283203125 193.2239227294922 467.439453125 194.162841796875 467.439453125 C 195.1031646728516 467.439453125 196.0351867675781 467.415283203125 197.0959625244141 467.3633728027344 L 200.3415374755859 467.20458984375 Z" stroke="none" fill="#212121"/>
        </g>
        <g id="Path_7906" data-name="Path 7906" transform="translate(-20.66 0)" fill="rgba(255,255,255,0)">
          <path d="M 29.6603889465332 17.2427806854248 C 28.54031944274902 17.2427806854248 27.47798919677734 17.21001052856445 26.41269874572754 17.14258003234863 C 23.95664978027344 16.98555946350098 22.41543960571289 16.66735076904297 21.55490875244141 16.42803955078125 C 20.71867942810059 16.19634056091309 20.05831909179688 15.57973003387451 19.78934860229492 14.77887058258057 C 19.51064872741699 13.9489107131958 19.68520927429199 13.04804992675781 20.25628852844238 12.3690299987793 C 21.01721954345703 11.46518039703369 22.78631019592285 9.13484001159668 22.78631019592285 7.013930320739746 C 22.78631019592285 4.43901538848877 24.38187980651855 2.117321491241455 26.81456756591797 1.065409660339355 C 26.95669937133789 0.5831032991409302 27.23057556152344 0.143794521689415 27.61734008789062 -0.2116896510124207 C 28.17041015625 -0.7200396656990051 28.89596939086914 -0.9999996423721313 29.66034889221191 -0.9999996423721313 C 30.42439842224121 -0.9999996423721313 31.14981842041016 -0.7200696468353271 31.70298957824707 -0.2117896527051926 C 32.08993530273438 0.1437694430351257 32.36394882202148 0.5831561088562012 32.50613021850586 1.065478801727295 C 33.59632110595703 1.537158727645874 34.53503799438477 2.272462606430054 35.24520874023438 3.216240406036377 C 36.08810806274414 4.336410522460938 36.53363800048828 5.649620532989502 36.53363800048828 7.013930320739746 C 36.53363800048828 9.132840156555176 38.30289840698242 11.4647102355957 39.06356811523438 12.36892032623291 C 39.63462066650391 13.04942989349365 39.80892944335938 13.94996070861816 39.53067016601562 14.77877044677734 C 39.26163864135742 15.57986068725586 38.60157012939453 16.19647979736328 37.76494979858398 16.42828941345215 C 36.90419769287109 16.66744995117188 35.3621711730957 16.98569107055664 32.90789794921875 17.14253997802734 C 31.84199905395508 17.21001052856445 30.77993011474609 17.2427806854248 29.6603889465332 17.2427806854248 Z" stroke="none"/>
          <path d="M 29.6603889465332 16.2427806854248 C 30.8109188079834 16.2427806854248 31.86434936523438 16.20659065246582 32.84412002563477 16.14458084106445 C 35.10837936401367 15.99987030029297 36.59175872802734 15.71638011932373 37.49792861938477 15.46460056304932 C 38.01485061645508 15.32137012481689 38.41975784301758 14.94559001922607 38.58266830444336 14.46049022674561 C 38.74948883056641 13.96362018585205 38.64217758178711 13.42243003845215 38.29833984375 13.01268005371094 C 37.26605987548828 11.78561019897461 35.53363800048828 9.373559951782227 35.53363800048828 7.013930320739746 C 35.53363800048828 4.674230575561523 33.93904113769531 2.569300413131714 31.61760902404785 1.795550346374512 C 31.58941841125488 0.8003103137016296 30.72161865234375 3.427124113386526e-07 29.66034889221191 3.427124113386526e-07 C 28.59832000732422 3.427124113386526e-07 27.7313289642334 0.8003103137016296 27.70310020446777 1.795550346374512 C 25.38089942932129 2.569300413131714 23.78631019592285 4.674230575561523 23.78631019592285 7.013930320739746 C 23.78631019592285 9.374320030212402 22.05464935302734 11.78561019897461 21.02161026000977 13.01268005371094 C 20.67700004577637 13.42243003845215 20.57045936584473 13.96361064910889 20.73730850219727 14.46049022674561 C 20.90021896362305 14.94554996490479 21.30589866638184 15.32137012481689 21.82283020019531 15.46460056304932 C 22.72821998596191 15.71638011932373 24.21236991882324 15.99987030029297 26.47585868835449 16.14458084106445 C 27.45563888549805 16.20659065246582 28.50905990600586 16.2427806854248 29.6603889465332 16.2427806854248 M 29.6603889465332 18.2427806854248 C 28.5190486907959 18.2427806854248 27.43605995178223 18.2093505859375 26.34952926635742 18.14059066772461 C 24.30805015563965 18.01007080078125 22.60519981384277 17.75806045532227 21.28697967529297 17.3914794921875 C 20.13115882873535 17.07122993469238 19.21623992919922 16.21338081359863 18.84137916564941 15.09724998474121 C 18.45074844360352 13.93395042419434 18.69359970092773 12.67347049713135 19.49096870422363 11.72537994384766 C 20.94993019104004 9.992400169372559 21.78631019592285 8.275420188903809 21.78631019592285 7.013930320739746 C 21.78631019592285 5.430880546569824 22.30138969421387 3.90971040725708 23.27585983276367 2.614870309829712 C 24.00324821472168 1.648346066474915 24.9386100769043 0.8727325201034546 26.01911735534668 0.3330117166042328 C 26.22930145263672 -0.1446805149316788 26.54029655456543 -0.5799757242202759 26.94062995910645 -0.9479396343231201 C 27.67874908447266 -1.626369714736938 28.64462852478027 -1.999999642372131 29.66034889221191 -1.999999642372131 C 30.67568016052246 -1.999999642372131 31.64139938354492 -1.626439690589905 32.37960052490234 -0.9481296539306641 C 32.7801628112793 -0.5800653100013733 33.09130477905273 -0.1446909010410309 33.30157089233398 0.3331160545349121 C 34.3818359375 0.8728613257408142 35.31697845458984 1.648463726043701 36.04425811767578 2.614980459213257 C 37.01861953735352 3.909850358963013 37.53363800048828 5.430980205535889 37.53363800048828 7.013930320739746 C 37.53363800048828 8.274140357971191 38.37018966674805 9.991320610046387 39.82880020141602 11.72517013549805 C 40.62633895874023 12.67558002471924 40.86867904663086 13.93539047241211 40.47866058349609 15.09705066680908 C 40.10372924804688 16.2135009765625 39.1890983581543 17.07135963439941 38.03197860717773 17.39198112487793 C 36.71389007568359 17.75821113586426 35.01089859008789 18.01017951965332 32.9716796875 18.14051055908203 C 31.88393020629883 18.2093505859375 30.80120849609375 18.2427806854248 29.6603889465332 18.2427806854248 Z" stroke="none" fill="#212121"/>
        </g>
      </g>
    </g>
    <g id="Ellipse_2116" data-name="Ellipse 2116" transform="translate(16 -2)" fill="#d61717" stroke="#fff" stroke-width="2">
      <circle cx="5" cy="5" r="5" stroke="none"/>
      <circle cx="5" cy="5" r="4" fill="none"/>
    </g>
  </g>
</svg>
