<svg xmlns="http://www.w3.org/2000/svg" width="14.248" height="12.415" viewBox="0 0 14.248 12.415"><defs><style>.a{stroke:#212121;stroke-width:0.5px;}</style></defs><g transform="translate(0.25 -33.883)"><g transform="translate(0 34.133)"><path class="a" d="M10.614,40a2.75,2.75,0,1,0-3.811,0,5.068,5.068,0,0,0-1.66,1.1A5,5,0,0,0,3.8,43.527H.458V42.382A3.877,3.877,0,0,1,1.6,39.627a3.935,3.935,0,0,1,1.36-.877,2.5,2.5,0,0,0,1.4.424,2.468,2.468,0,0,0,1.085-.247.229.229,0,1,0-.2-.412,2.011,2.011,0,0,1-.885.2,2.042,2.042,0,0,1-1.231-.408,2.061,2.061,0,1,1,3.027-2.664.229.229,0,0,0,.4-.225,2.518,2.518,0,1,0-3.99,3,4.416,4.416,0,0,0-1.285.886A4.333,4.333,0,0,0,0,42.382v1.375a.229.229,0,0,0,.229.229H3.718a5.1,5.1,0,0,0-.052.687v1.146a.229.229,0,0,0,.229.229h9.623a.229.229,0,0,0,.229-.229V44.673A5.019,5.019,0,0,0,10.614,40Zm-4.2-1.977a2.291,2.291,0,1,1,2.291,2.291A2.294,2.294,0,0,1,6.416,38.028Zm6.874,7.561H4.124v-.916a4.552,4.552,0,0,1,1.342-3.241,4.6,4.6,0,0,1,1.755-1.094,2.731,2.731,0,0,0,2.97,0,4.562,4.562,0,0,1,3.1,4.334v.917Z" transform="translate(0 -34.133)"/></g></g></svg>