<svg xmlns="http://www.w3.org/2000/svg" width="16.198" height="12.351" viewBox="0 0 16.198 12.351"><defs><style>.a{fill:#212121;stroke:#212121;stroke-width:0.2px;}</style></defs><g transform="translate(0.1 -58.85)"><g transform="translate(0 58.95)"><path class="a" d="M0,60.976v8.1A2.066,2.066,0,0,0,2.1,71.1H8.864a2.066,2.066,0,0,0,2.1-2.026V67.763a.415.415,0,0,0-.83,0v1.312A1.251,1.251,0,0,1,8.861,70.3H2.1A1.251,1.251,0,0,1,.827,69.075v-8.1A1.251,1.251,0,0,1,2.1,59.749H8.864a1.251,1.251,0,0,1,1.269,1.227v1.312a.415.415,0,0,0,.83,0V60.976a2.066,2.066,0,0,0-2.1-2.026H2.1A2.064,2.064,0,0,0,0,60.976Z" transform="translate(0 -58.95)"/><path class="a" d="M212.476,154.958a.45.45,0,0,0,.6,0l2.893-2.671a.368.368,0,0,0,0-.551l-2.893-2.671a.445.445,0,0,0-.6,0,.368.368,0,0,0,0,.551l2.172,2.006h-7.927a.393.393,0,1,0,0,.783h7.924l-2.172,2.006A.364.364,0,0,0,212.476,154.958Z" transform="translate(-200.095 -145.938)"/></g></g></svg>