<svg xmlns="http://www.w3.org/2000/svg" width="16.237" height="14.161" viewBox="0 0 16.237 14.161"><defs><style>.a{fill:#212121;stroke:#212121;stroke-width:0.2px;}</style></defs><g transform="translate(-4323.282 -1612.4)"><g transform="translate(4323.382 1612.5)"><g transform="translate(0 0)"><path class="a" d="M165.077,35.634a.765.765,0,0,0-.277.588v.63a.315.315,0,1,0,.63,0v-.63a.13.13,0,0,1,.048-.1,6.926,6.926,0,0,1,1.25-.8.351.351,0,0,0,.2-.318v-.887a.316.316,0,0,0-.14-.261.1.1,0,0,1-.045-.083v-.926a.515.515,0,0,1,.515-.515h.2a.515.515,0,0,1,.515.515v.919a.1.1,0,0,1-.045.083.308.308,0,0,0-.14.261V35a.355.355,0,0,0,.2.321,6.869,6.869,0,0,1,1.247.8.135.135,0,0,1,.048.1v.63a.315.315,0,1,0,.63,0v-.63a.765.765,0,0,0-.277-.588,7.615,7.615,0,0,0-1.218-.8v-.579a.735.735,0,0,0,.184-.487v-.919a1.146,1.146,0,0,0-1.145-1.145h-.2a1.146,1.146,0,0,0-1.145,1.145v.919a.735.735,0,0,0,.184.487v.579A7.6,7.6,0,0,0,165.077,35.634Z" transform="translate(-159.327 -31.7)"/><path class="a" d="M350.449,309.382a.314.314,0,0,0,.315-.315v-.553a.713.713,0,0,0-.258-.547,6.994,6.994,0,0,0-1.056-.7v-.474a.671.671,0,0,0,.162-.442v-.808a1.044,1.044,0,0,0-1.043-1.043h-.175a1.044,1.044,0,0,0-1.043,1.043v.808a.687.687,0,0,0,.162.442v.474a6.607,6.607,0,0,0-1.056.7.708.708,0,0,0-.258.547v.553a.315.315,0,1,0,.63,0v-.553a.078.078,0,0,1,.029-.06,6.055,6.055,0,0,1,1.091-.7.349.349,0,0,0,.2-.315v-.779a.316.316,0,0,0-.14-.261.051.051,0,0,1-.022-.041v-.808a.413.413,0,0,1,.413-.413h.175a.412.412,0,0,1,.413.413v.808a.045.045,0,0,1-.022.041.308.308,0,0,0-.14.261v.779a.349.349,0,0,0,.2.315,6.054,6.054,0,0,1,1.091.7.074.074,0,0,1,.029.06v.553A.3.3,0,0,0,350.449,309.382Z" transform="translate(-334.727 -295.422)"/><path class="a" d="M176.949,309.382a.314.314,0,0,0,.315-.315v-.553a.708.708,0,0,0-.258-.547,7,7,0,0,0-1.056-.7v-.474a.67.67,0,0,0,.162-.442v-.808a1.044,1.044,0,0,0-1.043-1.043h-.175a1.044,1.044,0,0,0-1.043,1.043v.808a.687.687,0,0,0,.162.442v.474a6.612,6.612,0,0,0-1.056.7.708.708,0,0,0-.258.547v.553a.315.315,0,1,0,.63,0v-.553a.078.078,0,0,1,.029-.06,6.054,6.054,0,0,1,1.091-.7.349.349,0,0,0,.2-.315v-.779a.316.316,0,0,0-.14-.261.05.05,0,0,1-.022-.041v-.808a.413.413,0,0,1,.413-.413h.175a.413.413,0,0,1,.413.413v.808a.045.045,0,0,1-.022.041.308.308,0,0,0-.14.261v.779a.349.349,0,0,0,.2.315,6.056,6.056,0,0,1,1.091.7.074.074,0,0,1,.029.06v.553A.306.306,0,0,0,176.949,309.382Z" transform="translate(-166.977 -295.422)"/><path class="a" d="M2.166,305.033h.172a.408.408,0,0,1,.407.407v.8a.052.052,0,0,1-.019.038.308.308,0,0,0-.14.261v.773a.349.349,0,0,0,.2.315,6.023,6.023,0,0,1,1.078.69.074.074,0,0,1,.025.057v.547a.315.315,0,0,0,.63,0v-.547a.7.7,0,0,0-.254-.544,6.732,6.732,0,0,0-1.043-.69v-.464a.679.679,0,0,0,.162-.439v-.8A1.039,1.039,0,0,0,2.344,304.4H2.172a1.039,1.039,0,0,0-1.037,1.037v.8a.668.668,0,0,0,.162.439v.464a6.732,6.732,0,0,0-1.043.69.7.7,0,0,0-.254.544v.547a.315.315,0,0,0,.63,0v-.547a.08.08,0,0,1,.025-.057,6.023,6.023,0,0,1,1.078-.69.349.349,0,0,0,.2-.315v-.773a.316.316,0,0,0-.14-.261.043.043,0,0,1-.019-.038v-.8A.389.389,0,0,1,2.166,305.033Z" transform="translate(0 -295.325)"/><path class="a" d="M73.381,201.471a.32.32,0,0,0,.327-.315v-1.17a.32.32,0,0,0-.327-.315H67.995v-.856a.328.328,0,0,0-.655,0v.856H61.927a.32.32,0,0,0-.327.315v1.17a.328.328,0,0,0,.655,0V200.3H67.34v.856a.328.328,0,0,0,.655,0V200.3h5.059v.856A.32.32,0,0,0,73.381,201.471Z" transform="translate(-59.641 -192.993)"/></g></g></g></svg>