<svg xmlns="http://www.w3.org/2000/svg" width="11.475" height="12.06" viewBox="0 0 11.475 12.06"><defs><style>.a{fill:#212121;}</style></defs><g transform="translate(-21.6 -20.146)"><path class="a" d="M28.9,20.295a.5.5,0,0,0-.549-.109.507.507,0,0,0-.311.467v2.23a7.442,7.442,0,0,0-6.437,7.4,6.836,6.836,0,0,0,.176,1.537.506.506,0,0,0,.986,0,6.831,6.831,0,0,1,5.281-5.3L28.037,28.7a.505.505,0,0,0,.862.359l4.027-4.027a.5.5,0,0,0,0-.715Zm.151,7.188,0-1.507a.506.506,0,0,0-.147-.357.5.5,0,0,0-.357-.149c-2.466,0-4.635,1.755-5.863,3.864.465-2.963,3.048-5.465,5.857-5.465a.505.505,0,0,0,.5-.5V21.868l2.807,2.807Z" transform="translate(0 0)"/></g></svg>