<svg xmlns="http://www.w3.org/2000/svg" width="20" height="20" viewBox="0 0 20 20"><defs><style>.a{fill:#fff;}</style></defs><g transform="translate(-1874 -7073)"><path class="a" d="M16,18a2,2,0,1,1,2,2A2,2,0,0,1,16,18ZM8,18a2,2,0,1,1,2,2A2,2,0,0,1,8,18ZM0,18a2,2,0,1,1,2,2A2,2,0,0,1,0,18Zm16-8a2,2,0,1,1,2,2A2,2,0,0,1,16,10ZM8,10a2,2,0,1,1,2,2A2,2,0,0,1,8,10ZM0,10a2,2,0,1,1,2,2A2,2,0,0,1,0,10ZM16,2a2,2,0,1,1,2,2A2,2,0,0,1,16,2ZM8,2a2,2,0,1,1,2,2A2,2,0,0,1,8,2Z" transform="translate(1874 7073)"/><path class="a" d="M2,4A2,2,0,1,1,4,2,2,2,0,0,1,2,4Z" transform="translate(1874 7073)"/><path class="a" d="M16,18a2,2,0,1,1,2,2A2,2,0,0,1,16,18ZM8,18a2,2,0,1,1,2,2A2,2,0,0,1,8,18ZM0,18a2,2,0,1,1,2,2A2,2,0,0,1,0,18Zm16-8a2,2,0,1,1,2,2A2,2,0,0,1,16,10ZM8,10a2,2,0,1,1,2,2A2,2,0,0,1,8,10ZM0,10a2,2,0,1,1,2,2A2,2,0,0,1,0,10ZM16,2a2,2,0,1,1,2,2A2,2,0,0,1,16,2ZM8,2a2,2,0,1,1,2,2A2,2,0,0,1,8,2Z" transform="translate(1874 7073)"/><path class="a" d="M2,4A2,2,0,1,1,4,2,2,2,0,0,1,2,4Z" transform="translate(1874 7073)"/></g></svg>