<svg xmlns="http://www.w3.org/2000/svg" width="37.813" height="37.623" viewBox="0 0 37.813 37.623">
  <g id="Group_13736" data-name="Group 13736" transform="translate(-5555.895 121.618)">
    <g id="Group_13735" data-name="Group 13735" transform="translate(5593.315 -103) rotate(135)">
      <path id="Path_8500" data-name="Path 8500" d="M12.813,25.594a.782.782,0,0,1-1.028,0,.745.745,0,0,1,0-1.044l.807-.792-9.5-14.4L.226,6.556a.675.675,0,0,1-.042-.966c.013-.014.028-.028.042-.042L5.657.222A.707.707,0,0,1,6.642.18c.015.013.029.027.042.042l2.9,2.807,2.238,1.4,3.119-3.059a.707.707,0,0,1,.985-.042c.015.013.029.027.042.042L21.62,6.916a.728.728,0,0,1,0,1.044L19.932,9.615l4.294,2.7.807-.792a.929.929,0,0,1,.55-.18.892.892,0,0,1,.514.18.815.815,0,0,1,0,1.044ZM6.171,1.733l-4.4,4.319L3.675,7.923,8.079,3.6ZM20.079,7.419l-4.624-4.5L13.07,5.26l5.614,3.527ZM9.216,4.54l-4.587,4.5,9.027,13.676,9.5-9.357Z" transform="translate(0 0)" stroke="#000" stroke-width="0.5"/>
      <path id="Path_8501" data-name="Path 8501" d="M.1.116A.407.407,0,0,1,.4,0,.406.406,0,0,1,.681.116L2.935,2.29a.394.394,0,0,1,0,.558A.389.389,0,0,1,2.4,2.87l-.023-.022L.1.674A.431.431,0,0,1,.1.116Z" transform="translate(23.128 23.201)" stroke="#000" stroke-width="0.5"/>
      <path id="Path_8502" data-name="Path 8502" d="M.248,0h.14A.419.419,0,0,1,.767.25l1,2.579a.4.4,0,0,1-.755.278l0-.009L.029.5A.38.38,0,0,1,.248,0Z" transform="translate(17.901 24.645)" stroke="#000" stroke-width="0.5"/>
      <path id="Path_8503" data-name="Path 8503" d="M3.456,1.482a.4.4,0,0,1-.509.234l-.009,0L.265.75A.363.363,0,0,1,.018.292L.026.269A.4.4,0,0,1,.4,0l.14.038L3.217.981A.4.4,0,0,1,3.456,1.482Z" transform="translate(24.523 18.218)" stroke="#000" stroke-width="0.5"/>
    </g>
    <g id="Ellipse_2149" data-name="Ellipse 2149" transform="translate(5561 -118)" fill="#d61717" stroke="#fff" stroke-width="2">
      <circle cx="5" cy="5" r="5" stroke="none"/>
      <circle cx="5" cy="5" r="4" fill="none"/>
    </g>
  </g>
</svg>
