<svg xmlns="http://www.w3.org/2000/svg" width="18.029" height="22.673" viewBox="0 0 18.029 22.673">
  <path id="Path_3153" data-name="Path 3153" d="M16.908,45.81H1.121A1.256,1.256,0,0,0,0,47.164v1.594a1.256,1.256,0,0,0,1.121,1.354h.525l5.795,7V68.032a.461.461,0,0,0,.231.417.319.319,0,0,0,.143.034.344.344,0,0,0,.264-.132l2.414-2.916a.5.5,0,0,0,.109-.319V57.11l5.794-7h.511a1.256,1.256,0,0,0,1.121-1.354V47.164A1.256,1.256,0,0,0,16.908,45.81ZM9.964,56.6a.5.5,0,0,0-.109.323v8L8.188,66.942V56.924a.5.5,0,0,0-.109-.32L2.7,50.112H15.34Zm7.317-7.846a.419.419,0,0,1-.374.451H1.121a.419.419,0,0,1-.374-.451V47.164a.419.419,0,0,1,.374-.451H16.908a.419.419,0,0,1,.374.451v1.594Z" transform="translate(0 -45.81)" fill="#007ee5"/>
</svg>
