<svg xmlns="http://www.w3.org/2000/svg" width="50" height="50" viewBox="0 0 50 50"><defs><style>.a{fill:#fff;}.a,.b{stroke:#007ee5;}.b{fill:#007ee5;}.c{stroke:none;}.d{fill:none;}</style></defs><g transform="translate(-16460 3250)"><g class="a" transform="translate(16460 -3250)"><circle class="c" cx="25" cy="25" r="25"/><circle class="d" cx="25" cy="25" r="24.5"/></g><path class="b" d="M24.281,45.81H1.61A1.712,1.712,0,0,0,0,47.6v2.112A1.712,1.712,0,0,0,1.61,51.51h.754l8.321,9.273V75.258a.6.6,0,0,0,.331.553.489.489,0,0,0,.205.046.51.51,0,0,0,.38-.175l3.467-3.864a.635.635,0,0,0,.157-.423V60.784l8.321-9.273h.734a1.712,1.712,0,0,0,1.61-1.794V47.6A1.712,1.712,0,0,0,24.281,45.81Zm-9.972,14.3a.633.633,0,0,0-.157.428v10.6l-2.394,2.667V60.538a.633.633,0,0,0-.157-.425l-7.72-8.6H22.029Zm10.508-10.4a.571.571,0,0,1-.537.6H1.61a.571.571,0,0,1-.537-.6V47.6a.571.571,0,0,1,.537-.6H24.281a.571.571,0,0,1,.537.6v2.112Z" transform="translate(16472.182 -3284.281)"/></g></svg>