<svg xmlns="http://www.w3.org/2000/svg" xmlns:xlink="http://www.w3.org/1999/xlink" width="121.496" height="83.306" viewBox="0 0 121.496 83.306">
  <defs>
    <filter id="Path_6405" x="15.113" y="17.915" width="82.185" height="57.063" filterUnits="userSpaceOnUse">
      <feOffset dx="-1" dy="3" input="SourceAlpha"/>
      <feGaussianBlur result="blur"/>
      <feFlood flood-color="#00cbff" flood-opacity="0.192"/>
      <feComposite operator="in" in2="blur"/>
      <feComposite in="SourceGraphic"/>
    </filter>
    <filter id="Path_6428" x="0" y="0" width="103.297" height="75.806" filterUnits="userSpaceOnUse">
      <feOffset dy="-3" input="SourceAlpha"/>
      <feGaussianBlur stdDeviation="7" result="blur-2"/>
      <feFlood flood-color="#00abcb" flood-opacity="0.161"/>
      <feComposite operator="in" in2="blur-2"/>
      <feComposite in="SourceGraphic"/>
    </filter>
    <filter id="Path_6429" x="4.252" y="13.499" width="84.394" height="63.729" filterUnits="userSpaceOnUse">
      <feOffset dy="-7" input="SourceAlpha"/>
      <feGaussianBlur stdDeviation="6.5" result="blur-3"/>
      <feFlood flood-color="#0fe" flood-opacity="0.361"/>
      <feComposite operator="in" in2="blur-3"/>
      <feComposite in="SourceGraphic"/>
    </filter>
    <filter id="Path_6430" x="18.793" y="6" width="79.297" height="51.806" filterUnits="userSpaceOnUse">
      <feOffset dy="-9" input="SourceAlpha"/>
      <feGaussianBlur stdDeviation="3" result="blur-4"/>
      <feFlood flood-color="#00a6c5" flood-opacity="0.161"/>
      <feComposite operator="in" in2="blur-4"/>
      <feComposite in="SourceGraphic"/>
    </filter>
    <filter id="Path_6431" x="15.199" y="4.5" width="106.297" height="78.806" filterUnits="userSpaceOnUse">
      <feOffset dy="3" input="SourceAlpha"/>
      <feGaussianBlur stdDeviation="7.5" result="blur-5"/>
      <feFlood flood-color="#dcebee"/>
      <feComposite operator="in" in2="blur-5"/>
      <feComposite in="SourceGraphic"/>
    </filter>
    <filter id="Union_16" x="20.243" y="27.565" width="79.244" height="45.977" filterUnits="userSpaceOnUse">
      <feOffset dx="-3" dy="-4" input="SourceAlpha"/>
      <feGaussianBlur stdDeviation="3" result="blur-6"/>
      <feFlood flood-color="#b6f1fc"/>
      <feComposite operator="in" in2="blur-6"/>
      <feComposite in="SourceGraphic"/>
    </filter>
  </defs>
  <g id="Group_13900" data-name="Group 13900" transform="translate(16.113 13.066)">
    <g transform="matrix(1, 0, 0, 1, -16.11, -13.07)" filter="url(#Path_6405)">
      <path id="Path_6405-2" data-name="Path 6405" d="M195.806,53.675a23.418,23.418,0,0,1,23.356,21.741,12.717,12.717,0,0,1-2.932,25.092c-.367,0-.73-.019-1.09-.05a16.591,16.591,0,0,1-18.5,3.267,16.593,16.593,0,0,1-24.521-3.224,16.066,16.066,0,0,1-12.3-6.035,10.644,10.644,0,0,1-3.533.6c-3.168,0-5.845-3.237-5.845-3.237s-2.679-4.012-2.679-6.733a12.474,12.474,0,0,1,2.679-8.354,7.188,7.188,0,0,1,3.736-2.644,5.108,5.108,0,0,1,2.109-.356,10.644,10.644,0,0,1,3.533.6A16.068,16.068,0,0,1,172.389,68.3a16.236,16.236,0,0,1,1.671.086A23.424,23.424,0,0,1,195.806,53.675Z" transform="translate(-131.65 -35.76)" fill="#fafcfd"/>
    </g>
    <g id="Group_9714" data-name="Group 9714" transform="translate(4.887 10.934)">
      <g transform="matrix(1, 0, 0, 1, -21, -24)" filter="url(#Path_6428)">
        <path id="Path_6428-2" data-name="Path 6428" d="M44.72,131.639a13.426,13.426,0,0,0-22.9,6.2,8.055,8.055,0,0,0-9.178,3.06,10.1,10.1,0,1,0-2.54,19.877H21.235c0-.627,1.084.249,1.75.285a13.136,13.136,0,0,1,3.012,0,5.21,5.21,0,0,0,3.1-.285,11.971,11.971,0,0,1,1.872.285c0-.095-.007-.285-.007-.285a24.35,24.35,0,0,0,3.677.285c2.011,0,1.008-.285,4.366-.285a36.66,36.66,0,0,0,6.177-.477c.563-.086,2.816,0,2.816,0a11.3,11.3,0,0,0,2.917.325,10.93,10.93,0,0,0,2.421-.386,6.009,6.009,0,0,0,1.6-.605,8.045,8.045,0,0,0,1.378-.532c.578-.345.543.052,1.429-.936.166-.15.7-1.123.975-.673a9.986,9.986,0,0,0-10.391-16.225c0-.151.011-.3.011-.455a13.366,13.366,0,0,0-1.538-6.245" transform="translate(21 -103.38)" fill="#fff"/>
      </g>
      <g transform="matrix(1, 0, 0, 1, -21, -24)" filter="url(#Path_6429)">
        <path id="Path_6429-2" data-name="Path 6429" d="M215.278,291.754a7.488,7.488,0,0,0-1.881.239,5.964,5.964,0,0,0-6.8-2.266,9.943,9.943,0,0,0-19.639,2.2c0,.113,0,.225.008.337a7.393,7.393,0,1,0-2.213,14.448h30.522a7.479,7.479,0,1,0,0-14.958Z" transform="translate(-153.61 -241.98)" fill="#fff"/>
      </g>
      <g transform="matrix(1, 0, 0, 1, -21, -24)" filter="url(#Path_6430)">
        <path id="Path_6430-2" data-name="Path 6430" d="M44.72,131.639a13.426,13.426,0,0,0-22.9,6.2,8.055,8.055,0,0,0-9.178,3.06,10.1,10.1,0,1,0-2.54,19.877H21.235c0-.627,1.084.249,1.75.285a13.136,13.136,0,0,1,3.012,0,5.21,5.21,0,0,0,3.1-.285,11.971,11.971,0,0,1,1.872.285c0-.095-.007-.285-.007-.285a24.35,24.35,0,0,0,3.677.285c2.011,0,1.008-.285,4.366-.285a36.66,36.66,0,0,0,6.177-.477c.563-.086,2.816,0,2.816,0a11.3,11.3,0,0,0,2.917.325,10.93,10.93,0,0,0,2.421-.386,6.009,6.009,0,0,0,1.6-.605,8.045,8.045,0,0,0,1.378-.532c.578-.345.543.052,1.429-.936.166-.15.7-1.123.975-.673a9.986,9.986,0,0,0-10.391-16.225c0-.151.011-.3.011-.455a13.366,13.366,0,0,0-1.538-6.245" transform="translate(27.79 -103.38)" fill="#fff"/>
      </g>
      <g transform="matrix(1, 0, 0, 1, -21, -24)" filter="url(#Path_6431)">
        <path id="Path_6431-2" data-name="Path 6431" d="M44.72,131.639a13.426,13.426,0,0,0-22.9,6.2,8.055,8.055,0,0,0-9.178,3.06,10.1,10.1,0,1,0-2.54,19.877H21.235c0-.627,1.084.249,1.75.285a13.136,13.136,0,0,1,3.012,0,5.21,5.21,0,0,0,3.1-.285,11.971,11.971,0,0,1,1.872.285c0-.095-.007-.285-.007-.285a24.35,24.35,0,0,0,3.677.285c2.011,0,1.008-.285,4.366-.285a36.66,36.66,0,0,0,6.177-.477c.563-.086,2.816,0,2.816,0a11.3,11.3,0,0,0,2.917.325,10.93,10.93,0,0,0,2.421-.386,6.009,6.009,0,0,0,1.6-.605,8.045,8.045,0,0,0,1.378-.532c.578-.345.543.052,1.429-.936.166-.15.7-1.123.975-.673a9.986,9.986,0,0,0-10.391-16.225c0-.151.011-.3.011-.455a13.366,13.366,0,0,0-1.538-6.245" transform="translate(37.7 -103.38)" fill="#fff"/>
      </g>
      <g transform="matrix(1, 0, 0, 1, -21, -24)" filter="url(#Union_16)">
        <path id="Union_16-2" data-name="Union 16" d="M9.177,27.219C1.8,25.371,0,21.419,0,17.337a7.4,7.4,0,0,1,9.606-7.056c0-.112-.009-.224-.009-.337a9.942,9.942,0,0,1,17.867-6,9.943,9.943,0,0,1,17.622,3.8,5.965,5.965,0,0,1,6.8,2.266,7.48,7.48,0,1,1,1.881,14.72h-16.3l-4.933,1.886s-1.887.78-7.55,1.107c-2.46.142-5.01.255-7.436.255A36.432,36.432,0,0,1,9.177,27.219Z" transform="translate(32.24 40.56)" fill="#fafcfd"/>
      </g>
    </g>
    <g id="Group_9715" data-name="Group 9715" transform="translate(15.36 0)">
      <g id="Ellipse_1" data-name="Ellipse 1" transform="translate(0)" fill="none" stroke="#9ac12f" stroke-miterlimit="10" stroke-width="3">
        <circle cx="26.102" cy="26.102" r="26.102" stroke="none"/>
        <circle cx="26.102" cy="26.102" r="27.602" fill="none"/>
      </g>
      <g id="Ellipse_2" data-name="Ellipse 2" transform="translate(1.386 1.386)" fill="#fff" stroke="#1b55a2" stroke-miterlimit="10" stroke-width="3">
        <circle cx="24.716" cy="24.716" r="24.716" stroke="none"/>
        <circle cx="24.716" cy="24.716" r="26.216" fill="none"/>
      </g>
      <g id="Group_1" data-name="Group 1" transform="translate(9.937 7.188)">
        <g id="Path_1" data-name="Path 1" transform="translate(-785.818 -90.878)" fill="#1b55a2" stroke-miterlimit="10">
          <path d="M 790.9483642578125 121.0416717529297 L 790.8064575195312 121.0416717529297 L 785.817626953125 121.0416717529297 L 785.3841552734375 121.0416717529297 L 785.6012573242188 120.6664657592773 L 795.125732421875 104.2053680419922 L 795.3707885742188 103.7817687988281 L 795.5703735351562 104.228630065918 L 797.8358764648438 109.3014984130859 L 797.8888549804688 109.4200973510742 L 797.822265625 109.5316162109375 L 791.0211181640625 120.9198455810547 L 790.9483642578125 121.0416717529297 Z" stroke="none"/>
          <path d="M 790.8064575195312 120.7916717529297 L 797.6076049804688 109.4034423828125 L 795.3421020507812 104.33056640625 L 785.817626953125 120.7916717529297 L 790.8064575195312 120.7916717529297 M 791.0902099609375 121.2916717529297 L 790.8064575195312 121.2916717529297 L 785.817626953125 121.2916717529297 L 784.95068359375 121.2916717529297 L 785.3848266601562 120.541259765625 L 794.9093017578125 104.0801620483398 L 795.3995361328125 103.2329711914062 L 795.7986450195312 104.1266784667969 L 798.0641479492188 109.1995468139648 L 798.1701049804688 109.4367599487305 L 798.036865234375 109.6598052978516 L 791.2357177734375 121.0480422973633 L 791.0902099609375 121.2916717529297 Z" stroke="none" fill="#fff"/>
        </g>
        <g id="Path_2" data-name="Path 2" transform="translate(-812.796 -56.802)" fill="#9ac12f" stroke-miterlimit="10">
          <path d="M 830.8943481445312 87.62702941894531 L 830.5928344726562 86.96424102783203 L 823.1051025390625 70.50600433349609 L 823.74462890625 70.12335968017578 L 830.87548828125 79.47709655761719 L 847.9816284179688 56.57789993286133 L 848.606689453125 56.99002075195312 L 831.2587890625 86.99664306640625 L 830.8943481445312 87.62702941894531 Z" stroke="none"/>
          <path d="M 848.2820434570312 56.80232238769531 L 830.8785400390625 80.09962463378906 L 823.4464111328125 70.35071563720703 L 830.9341430664062 86.80895233154297 L 848.2820434570312 56.80232238769531 M 847.6812133789062 56.35346984863281 L 848.9313354492188 57.17770385742188 L 831.5834350585938 87.18433380126953 L 830.8545532226562 88.44509887695312 L 830.25146484375 87.11953735351562 L 822.7637329101562 70.66129302978516 L 820.0072021484375 64.60233306884766 L 824.0428466796875 69.89601135253906 L 830.8724365234375 78.85457611083984 L 847.6812133789062 56.35346984863281 Z" stroke="none" fill="#fff"/>
        </g>
      </g>
    </g>
  </g>
</svg>
