<svg xmlns="http://www.w3.org/2000/svg" width="36" height="36" viewBox="0 0 36 36"><defs><style>.a{fill:#fff;stroke:#707070;}.b,.e{fill:none;}.c,.f{fill:#dd2e44;}.d,.f{stroke:none;}</style></defs><g transform="translate(-338 -75)"><g class="a" transform="translate(338 75)"><circle class="d" cx="18" cy="18" r="18"/><circle class="e" cx="18" cy="18" r="17.5"/></g><g transform="translate(338 75)"><g class="b"><path class="d" d="M18,0A18,18,0,1,1,0,18,18,18,0,0,1,18,0Z"/><path class="f" d="M 18 1 C 13.45914077758789 1 9.190059661865234 2.768310546875 5.979190826416016 5.979190826416016 C 2.768310546875 9.190059661865234 1 13.45914077758789 1 18 C 1 22.54087066650391 2.768310546875 26.80994033813477 5.979190826416016 30.02082061767578 C 9.190059661865234 33.231689453125 13.45914077758789 35 18 35 C 22.54087066650391 35 26.80994033813477 33.231689453125 30.02082061767578 30.02082061767578 C 33.231689453125 26.80994033813477 35 22.54087066650391 35 18 C 35 13.45914077758789 33.231689453125 9.190059661865234 30.02082061767578 5.979190826416016 C 26.80994033813477 2.768310546875 22.54087066650391 1 18 1 M 18 0 C 27.94112968444824 0 36 8.058879852294922 36 18 C 36 27.94112968444824 27.94112968444824 36 18 36 C 8.058879852294922 36 0 27.94112968444824 0 18 C 0 8.058879852294922 8.058879852294922 0 18 0 Z"/></g><g transform="translate(8.613 9.331)"><path class="c" d="M10.969-35.98l6.687-6.687a1.365,1.365,0,0,0,0-1.932,1.365,1.365,0,0,0-1.932,0L9.037-37.912,2.349-44.6a1.365,1.365,0,0,0-1.932,0,1.366,1.366,0,0,0,0,1.932L7.1-35.98l-6.7,6.7a1.365,1.365,0,0,0,0,1.932,1.361,1.361,0,0,0,.966.4,1.361,1.361,0,0,0,.966-.4l6.7-6.7,6.687,6.687a1.364,1.364,0,0,0,.966.4,1.363,1.363,0,0,0,.966-.4,1.365,1.365,0,0,0,0-1.932Z" transform="translate(-0.001 45)"/></g></g></g></svg>