<svg xmlns="http://www.w3.org/2000/svg" width="24.984" height="28.241" viewBox="0 0 24.984 28.241"><defs><style>.a{fill:#fff;}</style></defs><g transform="translate(10.279 0) rotate(45)"><g transform="translate(2.814 1.792)"><g transform="translate(0 0)"><path class="a" d="M18.318,4.721,14.489.561a1.966,1.966,0,0,0-2.757.006,1.879,1.879,0,0,0-.493.833,1.968,1.968,0,0,0-2.563.174,1.913,1.913,0,0,0-.494.832,1.969,1.969,0,0,0-2.562.175,1.9,1.9,0,0,0-.489.812l-1.8-1.784a1.966,1.966,0,0,0-2.757.006,1.908,1.908,0,0,0,0,2.719L7.5,11.188l-4.113.638a2.264,2.264,0,0,0-1.95,2.222,1.521,1.521,0,0,0,1.528,1.51h9.6a5.6,5.6,0,0,0,3.961-1.622l1.6-1.584a5.483,5.483,0,0,0,.182-7.632Zm-.9,6.92-1.6,1.584a4.581,4.581,0,0,1-3.241,1.327h-9.6a.507.507,0,0,1-.509-.5,1.25,1.25,0,0,1,1.083-1.226l5.108-.793a.508.508,0,0,0,.405-.341.5.5,0,0,0-.124-.511L1.289,3.623a.913.913,0,0,1,.005-1.3.936.936,0,0,1,1.312,0L7.7,7.358a.514.514,0,0,0,.72,0,.5.5,0,0,0,0-.713L6.34,4.588a.911.911,0,0,1,.006-1.3.937.937,0,0,1,1.311,0L9.739,5.344a.514.514,0,0,0,.72,0,.5.5,0,0,0,0-.713L9.4,3.581A.911.911,0,0,1,9.4,2.28a.937.937,0,0,1,1.311,0L11.78,3.335s0,0,0,0h.005a.513.513,0,0,0,.71-.01.5.5,0,0,0,0-.712l-.044-.043a.909.909,0,0,1,.005-1.3.935.935,0,0,1,1.295-.017L17.566,5.4a4.486,4.486,0,0,1-.15,6.243Z" transform="translate(0 0)"/></g></g><g transform="translate(0)"><g transform="translate(0 0)"><path class="a" d="M8.714,2.689A4.557,4.557,0,1,0,2.689,8.715a.507.507,0,0,0,.418-.924A3.543,3.543,0,1,1,7.79,3.107a.507.507,0,1,0,.923-.418Z"/></g></g></g></svg>