<svg xmlns="http://www.w3.org/2000/svg" width="36" height="36" viewBox="0 0 36 36"><defs><style>.a{fill:#fff;}.b,.f{fill:none;}.b{stroke:#16bf85;}.c{fill:#16bf85;}.d,.e{stroke:none;}.e{fill:#707070;}</style></defs><g transform="translate(-297 -75)"><g class="a" transform="translate(297 75)"><path class="d" d="M 18 35.5 C 13.32557964324951 35.5 8.930950164794922 33.67967987060547 5.625629901885986 30.37437057495117 C 2.320319890975952 27.06904983520508 0.5 22.67441940307617 0.5 18 C 0.5 13.32557964324951 2.320319890975952 8.930950164794922 5.625629901885986 5.625629901885986 C 8.930950164794922 2.320319890975952 13.32557964324951 0.5 18 0.5 C 22.67441940307617 0.5 27.06904983520508 2.320319890975952 30.37437057495117 5.625629901885986 C 33.67967987060547 8.930950164794922 35.5 13.32557964324951 35.5 18 C 35.5 22.67441940307617 33.67967987060547 27.06904983520508 30.37437057495117 30.37437057495117 C 27.06904983520508 33.67967987060547 22.67441940307617 35.5 18 35.5 Z"/><path class="e" d="M 18 1 C 13.45914077758789 1 9.190059661865234 2.768310546875 5.979190826416016 5.979190826416016 C 2.768310546875 9.190059661865234 1 13.45914077758789 1 18 C 1 22.54085922241211 2.768310546875 26.80994033813477 5.979190826416016 30.02080917358398 C 9.190059661865234 33.231689453125 13.45914077758789 35 18 35 C 22.54085922241211 35 26.80994033813477 33.231689453125 30.02080917358398 30.02080917358398 C 33.231689453125 26.80994033813477 35 22.54085922241211 35 18 C 35 13.45914077758789 33.231689453125 9.190059661865234 30.02080917358398 5.979190826416016 C 26.80994033813477 2.768310546875 22.54085922241211 1 18 1 M 18 0 C 27.94112014770508 0 36 8.058879852294922 36 18 C 36 27.94112014770508 27.94112014770508 36 18 36 C 8.058879852294922 36 0 27.94112014770508 0 18 C 0 8.058879852294922 8.058879852294922 0 18 0 Z"/></g><g transform="translate(297 75)"><g class="b"><circle class="d" cx="18" cy="18" r="18"/><circle class="f" cx="18" cy="18" r="17.5"/></g><g transform="translate(8.1 10.8)"><path class="c" d="M18.963,68.279a.962.962,0,0,0-1.361,0L6.074,79.808,1.642,75.377A.962.962,0,0,0,.281,76.738l5.112,5.112a.963.963,0,0,0,1.361,0L18.963,69.64A.962.962,0,0,0,18.963,68.279Z" transform="translate(0 -67.997)"/></g></g></g></svg>