<svg xmlns="http://www.w3.org/2000/svg" width="17.493" height="18.718" viewBox="0 0 17.493 18.718"><defs><style>.a{fill:#fff;}</style></defs><g transform="translate(-2.354 -2)"><g transform="translate(1.354 0)"><path class="a" d="M3.041,6.218A8.531,8.531,0,0,1,8.165,2.6a.525.525,0,0,0,.322-.789,3.86,3.86,0,1,0-6.3,4.443.526.526,0,0,0,.852-.038Z" transform="translate(-0.354 2)"/><path class="a" d="M31.844,0a3.852,3.852,0,0,0-3.261,1.8.525.525,0,0,0,.324.792,8.525,8.525,0,0,1,5.146,3.588.526.526,0,0,0,.855.03A3.858,3.858,0,0,0,31.844,0Z" transform="translate(-17.214 2)"/><path class="a" d="M21.172,15.842A8.509,8.509,0,1,0,7.025,22.2l-.717,1.01a.966.966,0,1,0,1.575,1.119L8.6,23.317a8.493,8.493,0,0,0,8.127,0l.717,1.009a.966.966,0,0,0,1.575-1.119L18.3,22.2A8.48,8.48,0,0,0,21.172,15.842Zm-8.508,6.129a6.129,6.129,0,1,1,6.129-6.13A6.136,6.136,0,0,1,12.663,21.971Z" transform="translate(-2.887 -4.014)"/><path class="a" d="M25,22.337l-2.338-1.444a1.117,1.117,0,0,0-.4-.676l.107-2.934a.679.679,0,1,0-1.357-.05L20.9,20.17a1.128,1.128,0,0,0,1.144,1.937l2.243,1.386A.679.679,0,1,0,25,22.337Z" transform="translate(-11.79 -9.075)"/></g></g></svg>