<svg xmlns="http://www.w3.org/2000/svg" width="86" height="86" viewBox="0 0 86 86">
  <g id="Group_15204" data-name="Group 15204" transform="translate(-70 -40)">
    <circle id="Ellipse_2141" data-name="Ellipse 2141" cx="43" cy="43" r="43" transform="translate(70 40)" fill="#007ee5"/>
    <g id="bank_01" data-name="bank 01" transform="translate(88.469 44.258)">
      <g id="Group_15203" data-name="Group 15203" transform="translate(-1 11.742)">
        <path id="Path_9837" data-name="Path 9837" d="M49.27,57.6h-.091V56.42a1.8,1.8,0,0,0-1.793-1.793H45.251V53a1.448,1.448,0,0,0-1.366-1.443V36.315a1.448,1.448,0,0,0,1.366-1.443V33.249h2.072a1.433,1.433,0,0,0,1.432-1.432V30.289h1.089a1.164,1.164,0,0,0,1.162-1.162V27.806a1.161,1.161,0,0,0-.609-1.022L33.242,17.507a.749.749,0,1,0-.713,1.318l16.978,9.181v.785H1.556v-.778L25.9,15.239l3.543,1.916a.749.749,0,1,0,.713-1.318l-3.543-1.916a1.49,1.49,0,0,0-1.4-.009L.68,26.78a1.159,1.159,0,0,0-.622,1.029v1.318A1.163,1.163,0,0,0,1.22,30.289H2.309v1.529A1.433,1.433,0,0,0,3.74,33.249H5.812v1.622a1.448,1.448,0,0,0,1.366,1.443V46.24a.749.749,0,1,0,1.5,0V36.319h2.4V51.558h-2.4v-1.8a.749.749,0,0,0-1.5,0v1.8A1.448,1.448,0,0,0,5.812,53v1.622H3.677A1.8,1.8,0,0,0,1.884,56.42V57.6H1.793A1.8,1.8,0,0,0,0,59.389v1.567a1.109,1.109,0,0,0,1.108,1.108H49.955a1.109,1.109,0,0,0,1.108-1.108V59.389A1.8,1.8,0,0,0,49.27,57.6ZM3.807,31.751V30.289H47.256v1.462Zm39.946,21.3v1.571H38.624V53.056Zm-3.763-1.5V36.319h2.4V51.558h-2.4ZM38.624,34.82V33.249h5.129V34.82ZM33.447,51.562V36.315a1.448,1.448,0,0,0,1.366-1.443V33.249h2.312v1.622a1.448,1.448,0,0,0,1.366,1.443V51.562A1.448,1.448,0,0,0,37.126,53v1.622H34.813V53A1.448,1.448,0,0,0,33.447,51.562Zm-.132,1.494v1.571H28.186V53.056Zm-3.763-1.5V36.319h2.4V51.558h-2.4ZM28.186,34.82V33.249h5.129V34.82ZM23.009,51.562V36.315a1.448,1.448,0,0,0,1.366-1.443V33.249h2.312v1.622a1.448,1.448,0,0,0,1.366,1.443V51.562A1.448,1.448,0,0,0,26.688,53v1.622H24.375V53A1.448,1.448,0,0,0,23.009,51.562Zm-.749,1.494h.617v1.571H17.748V53.056H22.26Zm-3.146-1.5V36.319h2.4V51.558h-2.4ZM17.748,34.82V33.249h5.129V34.82ZM12.572,51.562V36.315a1.448,1.448,0,0,0,1.366-1.443V33.249H16.25v1.622a1.448,1.448,0,0,0,1.366,1.443V51.562A1.448,1.448,0,0,0,16.25,53v1.622H13.938V53A1.448,1.448,0,0,0,12.572,51.562ZM7.31,34.82V33.249h5.129V34.82Zm0,18.235h5.129v1.571H7.31ZM3.382,56.42a.3.3,0,0,1,.295-.295h43.71a.3.3,0,0,1,.295.295V57.6H3.382Zm46.183,4.146H1.5V59.389a.3.3,0,0,1,.295-.295H49.27a.3.3,0,0,1,.295.295Z" transform="translate(0 -13.742)" fill="#fff"/>
      </g>
    </g>
  </g>
</svg>
