<svg id="Group_15017" data-name="Group 15017" xmlns="http://www.w3.org/2000/svg" width="103.978" height="101.495" viewBox="0 0 103.978 101.495">
  <path id="Path_8494" data-name="Path 8494" d="M375.052,180.412H347.034a2.411,2.411,0,0,0-2.408,2.408v62.27l-.321.1-6.873,2.1a1.285,1.285,0,0,1-1.6-.853l-20.445-66.781a1.285,1.285,0,0,1,.853-1.6l10.592-3.243,30.705-9.4,10.591-3.243a1.283,1.283,0,0,1,1.6.851l5.226,17.07Z" transform="translate(-309.042 -157.587)" fill="#1488e6" opacity="0.1"/>
  <path id="Path_8495" data-name="Path 8495" d="M348.306,156.421l-6.3-20.573a2.728,2.728,0,0,0-3.409-1.811L323.708,138.6,293,148l-14.891,4.56a2.732,2.732,0,0,0-1.811,3.408l21.527,70.31a2.734,2.734,0,0,0,2.611,1.931,2.7,2.7,0,0,0,.8-.12l10.208-3.124.321-.1v-.336l-.321.1-10.3,3.155a2.411,2.411,0,0,1-3.007-1.6l-21.525-70.312a2.4,2.4,0,0,1,1.6-3.007L293.1,148.3l30.7-9.4,14.891-4.56a2.406,2.406,0,0,1,3.007,1.6l6.269,20.48.1.321h.334Z" transform="translate(-276.183 -133.917)" fill="#3f3d56"/>
  <path id="Path_8496" data-name="Path 8496" d="M380.489,166.09a1.448,1.448,0,0,1-1.383-1.022l-2.068-6.755a1.445,1.445,0,0,1,.959-1.8l28.247-8.648a1.446,1.446,0,0,1,1.8.959l2.068,6.755a1.447,1.447,0,0,1-.959,1.8l-28.247,8.648A1.44,1.44,0,0,1,380.489,166.09Z" transform="translate(-360.792 -145.568)" fill="#1488e6"/>
  <circle id="Ellipse_2137" data-name="Ellipse 2137" cx="3.211" cy="3.211" r="3.211" transform="translate(27.318 0.795)" fill="#1488e6"/>
  <circle id="Ellipse_2138" data-name="Ellipse 2138" cx="2.033" cy="2.033" r="2.033" transform="translate(28.496 1.973)" fill="#fff"/>
  <path id="Path_8497" data-name="Path 8497" d="M587.949,361.839H533.683a1.366,1.366,0,0,1-1.365-1.365V295.452a1.366,1.366,0,0,1,1.365-1.365h54.266a1.366,1.366,0,0,1,1.365,1.365v65.023A1.366,1.366,0,0,1,587.949,361.839Z" transform="translate(-491.195 -265.963)" fill="#1488e6" opacity="0.1"/>
  <path id="Path_8498" data-name="Path 8498" d="M532.343,274.087h-33.8a2.733,2.733,0,0,0-2.729,2.729v65.473l.321-.1V276.816a2.411,2.411,0,0,1,2.408-2.408h33.9Zm29.461,0H498.547a2.733,2.733,0,0,0-2.729,2.729v73.532a2.733,2.733,0,0,0,2.729,2.729H561.8a2.733,2.733,0,0,0,2.729-2.729V276.816A2.733,2.733,0,0,0,561.8,274.087Zm2.408,76.262a2.411,2.411,0,0,1-2.408,2.408H498.547a2.411,2.411,0,0,1-2.408-2.408V276.816a2.411,2.411,0,0,1,2.408-2.408H561.8a2.411,2.411,0,0,1,2.408,2.408Z" transform="translate(-460.555 -251.583)" fill="#3f3d56"/>
  <path id="Path_8499" data-name="Path 8499" d="M639.8,266.041H610.263a1.447,1.447,0,0,1-1.445-1.445v-7.064a1.447,1.447,0,0,1,1.445-1.445H639.8a1.447,1.447,0,0,1,1.445,1.445V264.6A1.447,1.447,0,0,1,639.8,266.041Z" transform="translate(-555.413 -236.473)" fill="#1488e6"/>
  <circle id="Ellipse_2139" data-name="Ellipse 2139" cx="3.211" cy="3.211" r="3.211" transform="translate(66.409 13.674)" fill="#1488e6"/>
  <circle id="Ellipse_2140" data-name="Ellipse 2140" cx="1.956" cy="1.956" r="1.956" transform="translate(67.665 14.929)" fill="#fff"/>
</svg>
