<svg xmlns="http://www.w3.org/2000/svg" width="86" height="86" viewBox="0 0 86 86">
  <g id="Group_15207" data-name="Group 15207" transform="translate(-70 -40)">
    <circle id="Ellipse_2141" data-name="Ellipse 2141" cx="43" cy="43" r="43" transform="translate(70 40)" fill="#007ee5"/>
    <g id="bank_01" data-name="bank 01" transform="translate(88.469 44.258)">
      <g id="pdf" transform="translate(-57.219 14.742)">
        <g id="Group_15194" data-name="Group 15194" transform="translate(64)">
          <g id="Group_15193" data-name="Group 15193" transform="translate(0)">
            <path id="Path_9831" data-name="Path 9831" d="M99.947,10.362,89.879.295A1.006,1.006,0,0,0,89.168,0H68.027A4.031,4.031,0,0,0,64,4.027V44.3a4.031,4.031,0,0,0,4.027,4.027H96.215a4.031,4.031,0,0,0,4.027-4.027V11.074A1.006,1.006,0,0,0,99.947,10.362ZM90.174,3.437l6.63,6.63H92.188a2.016,2.016,0,0,1-2.013-2.013ZM98.228,44.3a2.016,2.016,0,0,1-2.013,2.013H68.027A2.016,2.016,0,0,1,66.013,44.3V4.027a2.016,2.016,0,0,1,2.013-2.013H88.161v6.04a4.031,4.031,0,0,0,4.027,4.027h6.04Z" transform="translate(-64)" fill="#fff" stroke="#007ee5" stroke-width="0.3"/>
            <path id="Path_9832" data-name="Path 9832" d="M145.213,184.112a29.173,29.173,0,0,1-2.408-2.077c-.767-.767-1.45-1.51-2.044-2.218a22.539,22.539,0,0,0,1.332-5.124c0-3.342-1.207-4.027-3.02-4.027-1.377,0-3.02.716-3.02,4.123,0,1.5.823,3.326,2.454,5.445-.4,1.218-.868,2.623-1.4,4.207-.254.76-.529,1.464-.82,2.115-.237.105-.467.212-.689.323-.8.4-1.56.76-2.265,1.094C130.124,189.5,128,190.5,128,192.49c0,1.443,1.568,2.337,3.02,2.337,1.872,0,4.7-2.5,6.763-6.712a40.052,40.052,0,0,1,6.91-1.864c1.685,1.3,3.546,2.535,4.448,2.535,2.5,0,3.02-1.443,3.02-2.653,0-2.38-2.719-2.38-4.027-2.38A23.845,23.845,0,0,0,145.213,184.112Zm-14.193,8.7a1.591,1.591,0,0,1-1.007-.323c0-.714,2.128-1.722,4.187-2.7l.4-.188C133.087,191.8,131.591,192.814,131.02,192.814Zm7.047-18.024c0-2.11.655-2.11,1.007-2.11.712,0,1.007,0,1.007,2.013a16.14,16.14,0,0,1-.8,3.144A6.186,6.186,0,0,1,138.067,174.789Zm.772,10.82q.094-.263.183-.531c.374-1.121.71-2.127,1.01-3.034q.627.69,1.351,1.414c.189.189.657.613,1.28,1.145C141.421,184.874,140.1,185.209,138.839,185.609Zm11.309.524c0,.452,0,.64-.934.646a7.419,7.419,0,0,1-1.691-.965c.284-.031.493-.047.611-.047C149.622,185.767,150.043,185.912,150.148,186.133Z" transform="translate(-121.96 -154.559)" fill="#fff" stroke="#007ee5" stroke-width="0.3"/>
          </g>
        </g>
      </g>
    </g>
  </g>
</svg>
