<svg id="Component_58_1797" data-name="Component 58 – 1797" xmlns="http://www.w3.org/2000/svg" width="28" height="28" viewBox="0 0 28 28">
  <g id="Ellipse_855" data-name="Ellipse 855" fill="none" stroke="#007ee5" stroke-linecap="round" stroke-width="1">
    <circle cx="14" cy="14" r="14" stroke="none"/>
    <circle cx="14" cy="14" r="13.5" fill="none"/>
  </g>
  <g id="view_1_" data-name="view (1)" transform="translate(6.902 9.657)">
    <g id="Group_12411" data-name="Group 12411" transform="translate(0 0)">
      <g id="Group_12410" data-name="Group 12410">
        <path id="Path_7245" data-name="Path 7245" d="M14.3,97.142c-.129-.176-3.193-4.307-7.106-4.307S.22,96.967.091,97.142a.475.475,0,0,0,0,.56c.128.176,3.193,4.307,7.106,4.307S14.175,97.878,14.3,97.7A.474.474,0,0,0,14.3,97.142ZM7.2,101.061c-2.883,0-5.379-2.742-6.118-3.639.738-.9,3.23-3.638,6.118-3.638s5.379,2.742,6.118,3.639C12.578,98.32,10.086,101.061,7.2,101.061Z" transform="translate(0 -92.835)" fill="#007ee5"/>
      </g>
    </g>
    <g id="Group_12413" data-name="Group 12413" transform="translate(4.35 1.74)">
      <g id="Group_12412" data-name="Group 12412" transform="translate(0 0)">
        <path id="Path_7246" data-name="Path 7246" d="M157.569,154.725a2.847,2.847,0,1,0,2.847,2.847A2.851,2.851,0,0,0,157.569,154.725Zm0,4.746a1.9,1.9,0,1,1,1.9-1.9A1.9,1.9,0,0,1,157.569,159.471Z" transform="translate(-154.722 -154.725)" fill="#007ee5"/>
      </g>
    </g>
  </g>
  <g id="view_1_2" data-name="view (1)" transform="translate(6.902 9.657)">
    <g id="Group_12411-2" data-name="Group 12411" transform="translate(0 0)">
      <g id="Group_12410-2" data-name="Group 12410">
        <path id="Path_7245-2" data-name="Path 7245" d="M14.3,97.142c-.129-.176-3.193-4.307-7.106-4.307S.22,96.967.091,97.142a.475.475,0,0,0,0,.56c.128.176,3.193,4.307,7.106,4.307S14.175,97.878,14.3,97.7A.474.474,0,0,0,14.3,97.142ZM7.2,101.061c-2.883,0-5.379-2.742-6.118-3.639.738-.9,3.23-3.638,6.118-3.638s5.379,2.742,6.118,3.639C12.578,98.32,10.086,101.061,7.2,101.061Z" transform="translate(0 -92.835)" fill="#007ee5"/>
      </g>
    </g>
    <g id="Group_12413-2" data-name="Group 12413" transform="translate(4.35 1.74)">
      <g id="Group_12412-2" data-name="Group 12412" transform="translate(0 0)">
        <path id="Path_7246-2" data-name="Path 7246" d="M157.569,154.725a2.847,2.847,0,1,0,2.847,2.847A2.851,2.851,0,0,0,157.569,154.725Zm0,4.746a1.9,1.9,0,1,1,1.9-1.9A1.9,1.9,0,0,1,157.569,159.471Z" transform="translate(-154.722 -154.725)" fill="#007ee5"/>
      </g>
    </g>
  </g>
</svg>
