<svg id="Component_5_122" data-name="Component 5 – 122" xmlns="http://www.w3.org/2000/svg" width="28" height="28" viewBox="0 0 28 28">
  <g id="Path_4122" data-name="Path 4122" fill="#dd2e44">
    <path d="M 14 27.5 C 10.39402008056641 27.5 7.003870010375977 26.09576034545898 4.454060077667236 23.54594039916992 C 1.904240012168884 20.99612998962402 0.5 17.60597991943359 0.5 14 C 0.5 10.39402008056641 1.904240012168884 7.003870010375977 4.454060077667236 4.454060077667236 C 7.003870010375977 1.904240012168884 10.39402008056641 0.5 14 0.5 C 17.60597991943359 0.5 20.99612998962402 1.904240012168884 23.54594039916992 4.454060077667236 C 26.09576034545898 7.003870010375977 27.5 10.39402008056641 27.5 14 C 27.5 17.60597991943359 26.09576034545898 20.99612998962402 23.54594039916992 23.54594039916992 C 20.99612998962402 26.09576034545898 17.60597991943359 27.5 14 27.5 Z" stroke="none"/>
    <path d="M 14 1 C 10.5275707244873 1 7.262990951538086 2.352239608764648 4.807609558105469 4.807609558105469 C 2.352239608764648 7.262990951538086 1 10.5275707244873 1 14 C 1 17.47243118286133 2.352239608764648 20.73701095581055 4.807609558105469 23.19239044189453 C 7.262990951538086 25.64776039123535 10.5275707244873 27 14 27 C 17.47243118286133 27 20.73701095581055 25.64776039123535 23.19239044189453 23.19239044189453 C 25.64776039123535 20.73701095581055 27 17.47243118286133 27 14 C 27 10.5275707244873 25.64776039123535 7.262990951538086 23.19239044189453 4.807609558105469 C 20.73701095581055 2.352239608764648 17.47243118286133 1 14 1 M 14 0 C 21.73199081420898 0 28 6.268009185791016 28 14 C 28 21.73199081420898 21.73199081420898 28 14 28 C 6.268009185791016 28 0 21.73199081420898 0 14 C 0 6.268009185791016 6.268009185791016 0 14 0 Z" stroke="none" fill="#dd2e44"/>
  </g>
  <g id="close_1_" data-name="close (1)" transform="translate(7.84 8.237)">
    <g id="Group_7899" data-name="Group 7899">
      <g id="Group_7898" data-name="Group 7898">
        <path id="Path_4001" data-name="Path 4001" d="M7.244-39.044,11.66-43.46a.9.9,0,0,0,0-1.276.9.9,0,0,0-1.276,0L5.968-40.32,1.551-44.736a.9.9,0,0,0-1.276,0,.9.9,0,0,0,0,1.276l4.416,4.416L.266-34.617a.9.9,0,0,0,0,1.276.9.9,0,0,0,.638.265.9.9,0,0,0,.638-.265l4.426-4.426,4.416,4.416a.9.9,0,0,0,.638.265.9.9,0,0,0,.638-.265.9.9,0,0,0,0-1.276Z" transform="translate(-0.001 45)" fill="#fff"/>
      </g>
    </g>
  </g>
</svg>
