<svg xmlns="http://www.w3.org/2000/svg" width="29.139" height="32.602" viewBox="0 0 29.139 32.602"><defs><style>.a{fill:#fff;}</style></defs><g transform="translate(12.03 0) rotate(45)"><g transform="translate(3.065 1.832)"><path class="a" d="M21.271,5.537,16.824.658a2.267,2.267,0,0,0-3.2.007,2.209,2.209,0,0,0-.572.976A2.266,2.266,0,0,0,9.5,2.821a2.269,2.269,0,0,0-2.975.205,2.234,2.234,0,0,0-.568.953l-2.1-2.092a2.262,2.262,0,0,0-3.2,3.2l8.052,8.038-4.776.749a2.646,2.646,0,0,0-2.264,2.606,1.775,1.775,0,0,0,1.774,1.771H14.6a6.468,6.468,0,0,0,4.6-1.9l1.86-1.857a6.477,6.477,0,0,0,.212-8.951Zm-1.048,8.116-1.86,1.857A5.292,5.292,0,0,1,14.6,17.066H3.447a.591.591,0,0,1-.591-.59,1.462,1.462,0,0,1,1.257-1.438l5.931-.93a.589.589,0,0,0,.326-1L1.5,4.249A1.08,1.08,0,0,1,3.026,2.722L8.943,8.629a.591.591,0,1,0,.835-.836L7.362,5.381A1.08,1.08,0,0,1,8.891,3.854l2.417,2.413a.591.591,0,1,0,.835-.836L10.91,4.2A1.08,1.08,0,0,1,12.44,2.674l1.239,1.237s0,0,0,0h0a0,0,0,0,1,0,0,.591.591,0,0,0,.824-.847L14.46,3.02a1.081,1.081,0,0,1,1.509-1.547L20.4,6.331a5.3,5.3,0,0,1-.174,7.321Z"/></g><g transform="translate(0)"><path class="a" d="M10.229,3.157A5.35,5.35,0,1,0,3.157,10.23a.6.6,0,0,0,.49-1.085,4.16,4.16,0,1,1,5.5-5.5.595.595,0,1,0,1.084-.49Z"/></g></g></svg>