<svg xmlns="http://www.w3.org/2000/svg" width="36.209" height="36" viewBox="0 0 36.209 36"><defs><style>.a{fill:#fff;}.b,.e{fill:none;}.b{stroke:#f24e4e;}.c{fill:#f24e4e;}.d{stroke:none;}</style></defs><path class="a" d="M18,0A18,18,0,1,1,0,18,18,18,0,0,1,18,0Z" transform="translate(0.209)"/><g class="b"><circle class="d" cx="18" cy="18" r="18"/><circle class="e" cx="18" cy="18" r="17.5"/></g><g transform="translate(-22 8)"><g transform="translate(31)"><path class="c" d="M46.837,2.346H43.9V1.76A1.762,1.762,0,0,0,42.145,0H37.452a1.762,1.762,0,0,0-1.76,1.76v.587H32.76a1.759,1.759,0,0,0-.547,3.432l1.046,12.629a1.77,1.77,0,0,0,1.754,1.614h9.572a1.77,1.77,0,0,0,1.754-1.614L47.384,5.778a1.759,1.759,0,0,0-.547-3.432ZM36.866,1.76a.587.587,0,0,1,.587-.587h4.692a.587.587,0,0,1,.587.587v.587H36.866Zm8.3,16.55a.59.59,0,0,1-.585.538H35.012a.59.59,0,0,1-.584-.538L33.4,5.866H46.2ZM46.837,4.692H32.76a.587.587,0,0,1,0-1.173H46.837a.587.587,0,1,1,0,1.173Z" transform="translate(-31)"/></g><g transform="translate(35.692 7.039)"><path class="c" d="M152.757,190.012l-.587-9.463a.587.587,0,0,0-1.171.073l.587,9.463a.587.587,0,1,0,1.171-.073Z" transform="translate(-150.999 -179.999)"/></g><g transform="translate(39.212 7.039)"><g transform="translate(0)"><path class="c" d="M241.587,180a.587.587,0,0,0-.587.587v9.463a.587.587,0,0,0,1.173,0v-9.463A.587.587,0,0,0,241.587,180Z" transform="translate(-241 -180)"/></g></g><g transform="translate(42.144 7.039)"><path class="c" d="M317.208,180a.587.587,0,0,0-.622.549L316,190.013a.587.587,0,0,0,1.171.073l.587-9.463A.587.587,0,0,0,317.208,180Z" transform="translate(-315.999 -180)"/></g></g></svg>