<svg xmlns="http://www.w3.org/2000/svg" width="36.209" height="36" viewBox="0 0 36.209 36"><defs><style>.a{fill:#fff;}.b,.f{fill:none;}.b{stroke:#007ee5;}.c{fill:#007ee5;}.d,.e{stroke:none;}.e{fill:#707070;}</style></defs><g class="a" transform="translate(0.209)"><path class="d" d="M 18 35.5 C 13.32557964324951 35.5 8.930950164794922 33.67967987060547 5.625629901885986 30.37437057495117 C 2.320319890975952 27.06904983520508 0.5 22.67441940307617 0.5 18 C 0.5 13.32557964324951 2.320319890975952 8.930950164794922 5.625629901885986 5.625629901885986 C 8.930950164794922 2.320319890975952 13.32557964324951 0.5 18 0.5 C 22.67441940307617 0.5 27.06904983520508 2.320319890975952 30.37437057495117 5.625629901885986 C 33.67967987060547 8.930950164794922 35.5 13.32557964324951 35.5 18 C 35.5 22.67441940307617 33.67967987060547 27.06904983520508 30.37437057495117 30.37437057495117 C 27.06904983520508 33.67967987060547 22.67441940307617 35.5 18 35.5 Z"/><path class="e" d="M 18 1 C 13.45914077758789 1 9.190059661865234 2.768310546875 5.979190826416016 5.979190826416016 C 2.768310546875 9.190059661865234 1 13.45914077758789 1 18 C 1 22.54085922241211 2.768310546875 26.80994033813477 5.979190826416016 30.02080917358398 C 9.190059661865234 33.231689453125 13.45914077758789 35 18 35 C 22.54085922241211 35 26.80994033813477 33.231689453125 30.02080917358398 30.02080917358398 C 33.231689453125 26.80994033813477 35 22.54085922241211 35 18 C 35 13.45914077758789 33.231689453125 9.190059661865234 30.02080917358398 5.979190826416016 C 26.80994033813477 2.768310546875 22.54085922241211 1 18 1 M 18 0 C 27.94112014770508 0 36 8.058879852294922 36 18 C 36 27.94112014770508 27.94112014770508 36 18 36 C 8.058879852294922 36 0 27.94112014770508 0 18 C 0 8.058879852294922 8.058879852294922 0 18 0 Z"/></g><g class="b"><circle class="d" cx="18" cy="18" r="18"/><circle class="f" cx="18" cy="18" r="17.5"/></g><g transform="translate(8.001 13)"><path class="c" d="M16.554,36.3c-4.906,0-9.657,4.681-9.847,4.889a.709.709,0,0,0,0,1c.207.207,4.941,4.889,9.847,4.889S26.211,42.4,26.4,42.191a.709.709,0,0,0,0-1c-.19-.207-4.923-4.889-9.847-4.889Zm0,9.346c-3.438,0-6.979-2.8-8.309-3.973C9.575,40.5,13.116,37.7,16.554,37.7s6.979,2.8,8.309,3.973C23.533,42.847,19.992,45.646,16.554,45.646Z" transform="translate(-6.5 -36.3)"/><path class="c" d="M50,55.157A2.557,2.557,0,1,0,52.557,52.6,2.562,2.562,0,0,0,50,55.157Zm3.68,0a1.14,1.14,0,1,1-1.14-1.14A1.162,1.162,0,0,1,53.68,55.157Z" transform="translate(-42.485 -49.784)"/></g></svg>