<svg xmlns="http://www.w3.org/2000/svg" width="16.501" height="18.5" viewBox="0 0 16.501 18.5">
  <path id="Exclusion_2" data-name="Exclusion 2" d="M7858.573,9109.5h-11.964a.608.608,0,0,1-.608-.608v-13.959a.609.609,0,0,1,.608-.61h2.714v-2.714a.609.609,0,0,1,.608-.608h11.963a.608.608,0,0,1,.608.608v13.962a.608.608,0,0,1-.608.608h-2.714v2.713A.608.608,0,0,1,7858.573,9109.5Zm-11.355-13.959v12.743h10.745V9095.54Zm11.355-1.219a.609.609,0,0,1,.608.61v10.029h2.106v-12.743h-10.748v2.1Zm-6.39,11.243a.861.861,0,1,1,.86-.859A.862.862,0,0,1,7852.183,9105.564Zm-.043-2.4a.668.668,0,0,1-.672-.7c0-.655.5-1.042.984-1.416.44-.338.854-.657.854-1.149a.882.882,0,0,0-1.008-.9,1.039,1.039,0,0,0-1.075.766c-.149.32-.289.622-.764.622a.63.63,0,0,1-.684-.64,2.339,2.339,0,0,1,2.46-1.943c1.231,0,2.668.55,2.668,2.1a2.46,2.46,0,0,1-1.339,1.907,2.443,2.443,0,0,0-.563.478,1.548,1.548,0,0,0-.16.335l0,0C7852.732,9102.9,7852.632,9103.162,7852.139,9103.162Z" transform="translate(-7846.001 -9090.999)" fill="white"/>
</svg>
