<svg xmlns="http://www.w3.org/2000/svg" width="20.384" height="15.538" viewBox="0 0 20.384 15.538"><defs><style>.a{fill:#fff;stroke:#fff;}</style></defs><g transform="translate(0.5 0.5)"><path class="a" d="M8.885,68.045V65.212A1.213,1.213,0,0,0,7.673,64a1.2,1.2,0,0,0-.816.324l-.521.482C4.621,66.394,1.749,69.05.279,70.524a1.134,1.134,0,0,0,0,1.49c1.469,1.473,4.341,4.13,6.057,5.717l.521.482a1.2,1.2,0,0,0,.816.324,1.213,1.213,0,0,0,1.212-1.212V74.5c5.815.082,9.692,1.916,9.692,3.632a.4.4,0,1,0,.808,0C19.384,72.692,14.711,68.242,8.885,68.045Zm-.4,5.647a.4.4,0,0,0-.4.4v3.231a.4.4,0,0,1-.4.4.391.391,0,0,1-.267-.109l-.521-.483C5.173,75.556,2.309,72.906.852,71.445a.37.37,0,0,1,0-.351c1.458-1.462,4.322-4.111,6.033-5.695l.521-.483a.391.391,0,0,1,.267-.109.4.4,0,0,1,.4.4v3.231a.4.4,0,0,0,.4.4,9.949,9.949,0,0,1,9.882,7.378C16.639,74.715,12.907,73.692,8.481,73.692Z" transform="translate(0 -64)"/></g></svg>