<svg xmlns="http://www.w3.org/2000/svg" width="18" height="15.234" viewBox="0 0 18 15.234"><defs><style>.a{fill:#fff;}</style></defs><path class="a" d="M15.891,42.1H7.908l-2.56-2.56a.7.7,0,0,0-.5-.206H2.109A2.112,2.112,0,0,0,0,41.442V52.458a2.112,2.112,0,0,0,2.109,2.109H15.891A2.112,2.112,0,0,0,18,52.458v-8.25A2.112,2.112,0,0,0,15.891,42.1Zm.7,10.359a.7.7,0,0,1-.7.7H2.109a.7.7,0,0,1-.7-.7V41.442a.7.7,0,0,1,.7-.7H4.56L7.12,43.3a.7.7,0,0,0,.5.206h8.273a.7.7,0,0,1,.7.7ZM15.234,51.1a.7.7,0,0,1-.7.7H11.766a.7.7,0,1,1,0-1.406h2.766A.7.7,0,0,1,15.234,51.1Z" transform="translate(0 -39.333)"/></svg>