<svg xmlns="http://www.w3.org/2000/svg" width="18.354" height="18.192" viewBox="0 0 18.354 18.192"><defs><style>.a{fill:#fff;}</style></defs><g transform="translate(0)"><path class="a" d="M115.2,200.711a.711.711,0,0,0-.711-.711H107.17a.711.711,0,0,0,0,1.421h7.319A.711.711,0,0,0,115.2,200.711Z" transform="translate(-103.621 -192.894)"/><path class="a" d="M107.17,280a.711.711,0,1,0,0,1.421h4.445a.711.711,0,1,0,0-1.421Z" transform="translate(-103.621 -270.051)"/><path class="a" d="M31.789,16.77H29.412a1.423,1.423,0,0,1-1.421-1.421V2.842a1.423,1.423,0,0,1,1.421-1.421h8.737A1.423,1.423,0,0,1,39.57,2.842v4.37a.711.711,0,1,0,1.421,0V2.842A2.846,2.846,0,0,0,38.149,0H29.412A2.846,2.846,0,0,0,26.57,2.842V15.349a2.846,2.846,0,0,0,2.842,2.842h2.377a.711.711,0,0,0,0-1.421Z" transform="translate(-26.57 0)"/><path class="a" d="M114.489,120H107.17a.711.711,0,0,0,0,1.421h7.319a.711.711,0,0,0,0-1.421Z" transform="translate(-103.621 -115.736)"/><g transform="translate(7.091 9.731)"><path class="a" d="M11.1,68.162a.563.563,0,0,0-.8,0L3.554,74.91.961,72.316a.563.563,0,0,0-.8.8L3.156,76.1a.563.563,0,0,0,.8,0L11.1,68.959A.563.563,0,0,0,11.1,68.162Z" transform="translate(0 -67.998)"/></g></g></svg>