<svg xmlns="http://www.w3.org/2000/svg" width="16.48" height="18.192" viewBox="0 0 16.48 18.192"><defs><style>.a,.b{fill:#fff;}.b{stroke:#fff;stroke-width:0.4px;}</style></defs><g transform="translate(-26.57)"><g transform="translate(26.57)"><path class="a" d="M115.2,200.711a.711.711,0,0,0-.711-.711H107.17a.711.711,0,0,0,0,1.421h7.319A.711.711,0,0,0,115.2,200.711Z" transform="translate(-103.621 -192.894)"/><path class="a" d="M107.17,280a.711.711,0,1,0,0,1.421h4.445a.711.711,0,1,0,0-1.421Z" transform="translate(-103.621 -270.051)"/><path class="a" d="M31.789,16.77H29.412a1.423,1.423,0,0,1-1.421-1.421V2.842a1.423,1.423,0,0,1,1.421-1.421h8.737A1.423,1.423,0,0,1,39.57,2.842v4.37a.711.711,0,1,0,1.421,0V2.842A2.846,2.846,0,0,0,38.149,0H29.412A2.846,2.846,0,0,0,26.57,2.842V15.349a2.846,2.846,0,0,0,2.842,2.842h2.377a.711.711,0,0,0,0-1.421Z" transform="translate(-26.57 0)"/><path class="a" d="M114.489,120H107.17a.711.711,0,0,0,0,1.421h7.319a.711.711,0,0,0,0-1.421Z" transform="translate(-103.621 -115.736)"/><g transform="translate(-0.526 -23.902)"><g transform="translate(6.354 35.49)"><path class="b" d="M11.726,36.3c-2.55,0-5.02,2.434-5.118,2.541a.369.369,0,0,0,0,.521c.108.108,2.568,2.541,5.118,2.541s5.02-2.434,5.118-2.541a.369.369,0,0,0,0-.521C16.746,38.734,14.285,36.3,11.726,36.3Zm0,4.858c-1.787,0-3.628-1.455-4.319-2.065.691-.611,2.532-2.065,4.319-2.065s3.628,1.455,4.319,2.065C15.354,39.7,13.513,41.158,11.726,41.158Z" transform="translate(-6.5 -36.3)"/><path class="b" d="M50,53.929A1.329,1.329,0,1,0,51.329,52.6,1.332,1.332,0,0,0,50,53.929Zm1.913,0a.593.593,0,1,1-.593-.593A.6.6,0,0,1,51.913,53.929Z" transform="translate(-46.094 -51.136)"/></g></g></g></g></svg>