<svg xmlns="http://www.w3.org/2000/svg" xmlns:xlink="http://www.w3.org/1999/xlink" width="30" height="30" viewBox="0 0 30 30">
  <defs>
    <clipPath id="clip-path">
      <circle id="Ellipse_748" data-name="Ellipse 748" cx="15" cy="15" r="15" transform="translate(1839 210)" fill="rgba(255,255,255,0)" stroke="#212121" stroke-width="0.5"/>
    </clipPath>
  </defs>
  <g id="Mask_Group_6" data-name="Mask Group 6" transform="translate(-1839 -210)" clip-path="url(#clip-path)">
    <g id="Group_9001" data-name="Group 9001">
      <g id="download_1_" data-name="download (1)" transform="translate(1844 198.75)">
        <g id="Group_8984" data-name="Group 8984" transform="translate(0 17.25)">
          <path id="Path_6403" data-name="Path 6403" d="M19.442,228.235a.571.571,0,0,0-.573.573v5.216a2.573,2.573,0,0,1-2.57,2.57H3.717a2.573,2.573,0,0,1-2.57-2.57v-5.3a.573.573,0,0,0-1.147,0v5.3a3.721,3.721,0,0,0,3.717,3.717H16.3a3.721,3.721,0,0,0,3.717-3.717v-5.216A.574.574,0,0,0,19.442,228.235Z" transform="translate(0 -219.192)" fill="#212121" stroke="#fff" stroke-width="0.2"/>
          <path id="Path_6404" data-name="Path 6404" d="M140.043,31.246a.577.577,0,0,0,.4.17.56.56,0,0,0,.4-.17l3.645-3.645a.574.574,0,0,0-.811-.811l-2.663,2.668V17.823a.573.573,0,0,0-1.147,0V29.458l-2.668-2.668a.574.574,0,0,0-.811.811Z" transform="translate(-130.439 -17.25)" fill="#212121" stroke="#fff" stroke-width="0.2"/>
        </g>
      </g>
      <g id="download_1_2" data-name="download (1)" transform="translate(1844 165.75)" opacity="0">
        <g id="Group_8984-2" data-name="Group 8984" transform="translate(0 17.25)">
          <path id="Path_6403-2" data-name="Path 6403" d="M19.442,228.235a.571.571,0,0,0-.573.573v5.216a2.573,2.573,0,0,1-2.57,2.57H3.717a2.573,2.573,0,0,1-2.57-2.57v-5.3a.573.573,0,0,0-1.147,0v5.3a3.721,3.721,0,0,0,3.717,3.717H16.3a3.721,3.721,0,0,0,3.717-3.717v-5.216A.574.574,0,0,0,19.442,228.235Z" transform="translate(0 -219.192)" fill="#fff" stroke="#212121" stroke-width="0.2"/>
          <path id="Path_6404-2" data-name="Path 6404" d="M140.043,31.246a.577.577,0,0,0,.4.17.56.56,0,0,0,.4-.17l3.645-3.645a.574.574,0,0,0-.811-.811l-2.663,2.668V17.823a.573.573,0,0,0-1.147,0V29.458l-2.668-2.668a.574.574,0,0,0-.811.811Z" transform="translate(-130.439 -17.25)" fill="#fff" stroke="#212121" stroke-width="0.2"/>
        </g>
      </g>
    </g>
  </g>
</svg>
