<svg xmlns="http://www.w3.org/2000/svg" width="15.776" height="16.171" viewBox="0 0 15.776 16.171"><defs><style>.a{fill:#212121;}</style></defs><path class="a" d="M15.592,0H1.175a.677.677,0,0,0-.6.368.687.687,0,0,0,.053.715l5.282,7.44.005.008a1.509,1.509,0,0,1,.3.9v6.066a.674.674,0,0,0,.674.679.7.7,0,0,0,.266-.053l2.968-1.132a.643.643,0,0,0,.442-.634V9.426a1.509,1.509,0,0,1,.3-.9l.005-.008,5.282-7.441A.686.686,0,0,0,16.2.368a.677.677,0,0,0-.6-.368Zm-5.4,8.044a2.337,2.337,0,0,0-.455,1.382v4.826L7.029,15.284V9.426a2.336,2.336,0,0,0-.456-1.382L1.446.821H15.321Zm0,0" transform="translate(16.272 16.17) rotate(180)"/></svg>