<svg xmlns="http://www.w3.org/2000/svg" xmlns:xlink="http://www.w3.org/1999/xlink" width="26" height="26" viewBox="0 0 26 26">
  <defs>
    <clipPath id="clip-path">
      <circle id="Ellipse_750" data-name="Ellipse 750" cx="13" cy="13" r="13" transform="translate(3857 -210) rotate(180)" fill="rgba(255,255,255,0)" stroke="#212121" stroke-width="0.5"/>
    </clipPath>
  </defs>
  <g id="Mask_Group_11" data-name="Mask Group 11" transform="translate(-3831 236)" clip-path="url(#clip-path)">
    <g id="Group_10379" data-name="Group 10379">
      <g id="Group_9849" data-name="Group 9849" transform="translate(5698 2) rotate(180)">
        <g id="Group_9001" data-name="Group 9001">
          <path id="filter" d="M15.592,0H1.175a.677.677,0,0,0-.6.368.687.687,0,0,0,.053.715l5.282,7.44.005.008a1.509,1.509,0,0,1,.3.9v6.066a.674.674,0,0,0,.674.679.7.7,0,0,0,.266-.053l2.968-1.132a.643.643,0,0,0,.442-.634V9.426a1.509,1.509,0,0,1,.3-.9l.005-.008,5.282-7.441A.686.686,0,0,0,16.2.368a.677.677,0,0,0-.6-.368Zm-5.4,8.044a2.337,2.337,0,0,0-.455,1.382v4.826L7.029,15.284V9.426a2.336,2.336,0,0,0-.456-1.382L1.446.821H15.321Zm0,0" transform="translate(1862.513 232.79) rotate(180)" fill="#212121"/>
        </g>
      </g>
      <g id="Group_10378" data-name="Group 10378" transform="translate(5698 -30) rotate(180)">
        <g id="Group_9001-2" data-name="Group 9001">
          <path id="filter-2" data-name="filter" d="M15.592,0H1.175a.677.677,0,0,0-.6.368.687.687,0,0,0,.053.715l5.282,7.44.005.008a1.509,1.509,0,0,1,.3.9v6.066a.674.674,0,0,0,.674.679.7.7,0,0,0,.266-.053l2.968-1.132a.643.643,0,0,0,.442-.634V9.426a1.509,1.509,0,0,1,.3-.9l.005-.008,5.282-7.441A.686.686,0,0,0,16.2.368a.677.677,0,0,0-.6-.368Zm-5.4,8.044a2.337,2.337,0,0,0-.455,1.382v4.826L7.029,15.284V9.426a2.336,2.336,0,0,0-.456-1.382L1.446.821H15.321Zm0,0" transform="translate(1862.513 232.79) rotate(180)" fill="#fff"/>
        </g>
      </g>
    </g>
  </g>
</svg>
