<svg xmlns="http://www.w3.org/2000/svg" xmlns:xlink="http://www.w3.org/1999/xlink" width="28" height="28" viewBox="0 0 28 28">
  <defs>
    <clipPath id="clip-path">
      <circle id="Ellipse_749" data-name="Ellipse 749" cx="14" cy="14" r="14" transform="translate(1794 211)" fill="rgba(255,255,255,0)" stroke="#212121" stroke-width="0.5"/>
    </clipPath>
  </defs>
  <g id="Mask_Group_7" data-name="Mask Group 7" transform="translate(-1794 -211)" clip-path="url(#clip-path)">
    <g id="Group_9003" data-name="Group 9003" transform="translate(0 32)">
      <g id="Group_8983" data-name="Group 8983" transform="translate(7451 3137.203)">
        <g id="Rectangle_1577" data-name="Rectangle 1577" transform="translate(-5653 -2913.203)" fill="rgba(255,255,255,0)" stroke="#212121" stroke-width="0.8">
          <rect width="7" height="10" rx="1" stroke="none"/>
          <rect x="0.4" y="0.4" width="6.2" height="9.2" rx="0.6" fill="none"/>
        </g>
        <g id="Rectangle_1578" data-name="Rectangle 1578" transform="translate(-5653 -2920.203)" fill="rgba(255,255,255,0)" stroke="#212121" stroke-width="0.8">
          <rect width="20" height="5" rx="1" stroke="none"/>
          <rect x="0.4" y="0.4" width="19.2" height="4.2" rx="0.6" fill="none"/>
        </g>
        <g id="Rectangle_1579" data-name="Rectangle 1579" transform="translate(-5644 -2913.203)" fill="rgba(255,255,255,0)" stroke="#212121" stroke-width="0.8">
          <rect width="11" height="10" rx="1" stroke="none"/>
          <rect x="0.4" y="0.4" width="10.2" height="9.2" rx="0.6" fill="none"/>
        </g>
      </g>
      <g id="Group_9002" data-name="Group 9002" transform="translate(7451 3105.203)">
        <g id="Rectangle_1577-2" data-name="Rectangle 1577" transform="translate(-5653 -2913.203)" fill="rgba(0,0,0,0)" stroke="#fff" stroke-width="0.8">
          <rect width="7" height="10" rx="1" stroke="none"/>
          <rect x="0.4" y="0.4" width="6.2" height="9.2" rx="0.6" fill="none"/>
        </g>
        <g id="Rectangle_1578-2" data-name="Rectangle 1578" transform="translate(-5653 -2920.203)" fill="rgba(0,0,0,0)" stroke="#fff" stroke-width="0.8">
          <rect width="20" height="5" rx="1" stroke="none"/>
          <rect x="0.4" y="0.4" width="19.2" height="4.2" rx="0.6" fill="none"/>
        </g>
        <g id="Rectangle_1579-2" data-name="Rectangle 1579" transform="translate(-5644 -2913.203)" fill="rgba(0,0,0,0)" stroke="#fff" stroke-width="0.8">
          <rect width="11" height="10" rx="1" stroke="none"/>
          <rect x="0.4" y="0.4" width="10.2" height="9.2" rx="0.6" fill="none"/>
        </g>
      </g>
    </g>
  </g>
</svg>
