<svg xmlns="http://www.w3.org/2000/svg" width="20.215" height="18.75" viewBox="0 0 20.215 18.75"><defs><style>.a{opacity:0;}.b{fill:#fff;stroke:#212121;stroke-width:0.2px;}</style></defs><g class="a" transform="translate(0.1 -17.15)"><g transform="translate(0 17.25)"><path class="b" d="M19.442,228.235a.571.571,0,0,0-.573.573v5.216a2.573,2.573,0,0,1-2.57,2.57H3.717a2.573,2.573,0,0,1-2.57-2.57v-5.3a.573.573,0,0,0-1.147,0v5.3a3.721,3.721,0,0,0,3.717,3.717H16.3a3.721,3.721,0,0,0,3.717-3.717v-5.216A.574.574,0,0,0,19.442,228.235Z" transform="translate(0 -219.192)"/><path class="b" d="M140.043,31.246a.577.577,0,0,0,.4.17.56.56,0,0,0,.4-.17l3.645-3.645a.574.574,0,0,0-.811-.811l-2.663,2.668V17.823a.573.573,0,0,0-1.147,0V29.458l-2.668-2.668a.574.574,0,0,0-.811.811Z" transform="translate(-130.439 -17.25)"/></g></g></svg>