<svg id="Component_58_3861" data-name="Component 58 – 3861" xmlns="http://www.w3.org/2000/svg" width="28" height="28" viewBox="0 0 28 28">
  <g id="Ellipse_855" data-name="Ellipse 855" fill="#007ee5" stroke="#007ee5" stroke-linecap="round" stroke-width="1">
    <circle cx="14" cy="14" r="14" stroke="none"/>
    <circle cx="14" cy="14" r="13.5" fill="none"/>
  </g>
  <path id="Shape" d="M0,11.192v-.559L0,8.274a2.26,2.26,0,0,1,.74-1.507L7.1.405A1.374,1.374,0,0,1,9.052.4L10.787,2.14a1.387,1.387,0,0,1,.4.974,1.369,1.369,0,0,1-.4.974L4.453,10.421a2.277,2.277,0,0,1-1.58.771ZM1.509,7.581a1.155,1.155,0,0,0-.39.738v1.754H2.834a1.162,1.162,0,0,0,.8-.415L7.865,5.427l-2.1-2.1ZM8.657,4.636,10,3.3a.258.258,0,0,0,0-.365L8.259,1.195a.255.255,0,0,0-.362,0L6.556,2.535Z" transform="translate(9 8)" fill="#fff"/>
</svg>
