<svg id="Component_102_10" data-name="Component 102 – 10" xmlns="http://www.w3.org/2000/svg" width="28" height="28" viewBox="0 0 28 28">
  <g id="Component_5_280" data-name="Component 5 – 280">
    <g id="Path_4122" data-name="Path 4122" fill="none">
      <path d="M14,0A14,14,0,1,1,0,14,14,14,0,0,1,14,0Z" stroke="none"/>
      <path d="M 14 1 C 10.5275707244873 1 7.262990951538086 2.352239608764648 4.807609558105469 4.807609558105469 C 2.352239608764648 7.262990951538086 1 10.5275707244873 1 14 C 1 17.47243118286133 2.352239608764648 20.73701095581055 4.807609558105469 23.19239044189453 C 7.262990951538086 25.64776039123535 10.5275707244873 27 14 27 C 17.47243118286133 27 20.73701095581055 25.64776039123535 23.19239044189453 23.19239044189453 C 25.64776039123535 20.73701095581055 27 17.47243118286133 27 14 C 27 10.5275707244873 25.64776039123535 7.262990951538086 23.19239044189453 4.807609558105469 C 20.73701095581055 2.352239608764648 17.47243118286133 1 14 1 M 14 0 C 21.73199081420898 0 28 6.268009185791016 28 14 C 28 21.73199081420898 21.73199081420898 28 14 28 C 6.268009185791016 28 0 21.73199081420898 0 14 C 0 6.268009185791016 6.268009185791016 0 14 0 Z" stroke="none" fill="#dd2e44"/>
    </g>
  </g>
  <g id="delete_1_" data-name="delete (1)" transform="translate(7 6)">
    <path id="Path_6744" data-name="Path 6744" d="M13.336,3.661l-.362-1.084a1.009,1.009,0,0,0-.958-.69H8.977V.9a.9.9,0,0,0-.9-.9H5.3a.9.9,0,0,0-.9.9v.99H1.361A1.009,1.009,0,0,0,.4,2.58L.041,3.661a.812.812,0,0,0,.77,1.068h.378l.832,10.289A1.488,1.488,0,0,0,3.5,16.379h6.55a1.488,1.488,0,0,0,1.475-1.362l.832-10.289h.209a.812.812,0,0,0,.77-1.068ZM5.36.959H8.017v.927H5.36ZM10.568,14.94a.523.523,0,0,1-.518.479H3.5a.523.523,0,0,1-.518-.479L2.152,4.729h9.242ZM1.017,3.769l.3-.889a.05.05,0,0,1,.047-.034H12.017a.05.05,0,0,1,.047.034l.3.889Zm0,0" fill="#dd2e44"/>
    <path id="Path_6745" data-name="Path 6745" d="M268.751,175.186h.025a.48.48,0,0,0,.479-.455l.451-8.65a.48.48,0,1,0-.959-.05l-.451,8.65a.48.48,0,0,0,.455.505Zm0,0" transform="translate(-259.713 -160.28)" fill="#dd2e44"/>
    <path id="Path_6746" data-name="Path 6746" d="M106.266,174.736a.48.48,0,0,0,.479.454h.027a.48.48,0,0,0,.453-.505l-.472-8.65a.48.48,0,1,0-.958.052Zm0,0" transform="translate(-102.409 -160.282)" fill="#dd2e44"/>
    <path id="Path_6747" data-name="Path 6747" d="M194.734,175.189a.48.48,0,0,0,.48-.48v-8.65a.48.48,0,0,0-.96,0v8.65a.48.48,0,0,0,.48.48Zm0,0" transform="translate(-188.04 -160.282)" fill="#dd2e44"/>
  </g>
</svg>
