<svg id="Capa_1" enable-background="new 0 0 512 512" height="512" viewBox="0 0 512 512" width="512" xmlns="http://www.w3.org/2000/svg"><g><path d="m437.02 74.98c-48.353-48.351-112.64-74.98-181.02-74.98l-20.001 256 20.001 256c68.38 0 132.667-26.629 181.02-74.98 48.351-48.353 74.98-112.64 74.98-181.02s-26.629-132.667-74.98-181.02z" fill="#00cc76"/><path d="m74.98 74.98c-48.351 48.353-74.98 112.64-74.98 181.02s26.629 132.667 74.98 181.02c48.353 48.351 112.64 74.98 181.02 74.98v-512c-68.38 0-132.667 26.629-181.02 74.98z" fill="#9cdd05"/><path d="m415.806 96.194c-42.686-42.686-99.439-66.194-159.806-66.194l-20.001 226 20.001 226c60.367 0 117.12-23.508 159.806-66.194s66.194-99.439 66.194-159.806-23.508-117.12-66.194-159.806z" fill="#00aa95"/><path d="m96.194 96.194c-42.686 42.686-66.194 99.439-66.194 159.806s23.508 117.12 66.194 159.806 99.439 66.194 159.806 66.194v-452c-60.367 0-117.12 23.508-159.806 66.194z" fill="#00cc76"/><path d="m328.201 382.853-42.027-57.123c-9.256 4.021-19.457 6.264-30.175 6.264l-20.001 31.868 20.002 38.132c26.247 0 50.895-6.967 72.201-19.141z" fill="#ebebf0"/><path d="m180.685 266h41.725l-77.404-105.208-77.403 105.208h42.753c5.157 75.854 68.505 135.994 145.644 135.994v-70c-38.511 0-70.401-28.803-75.315-65.994z" fill="#fff5f5"/><path d="m401.644 246c-5.157-75.854-68.505-135.994-145.644-135.994l-20.001 38.132 20.001 31.868c38.511 0 70.401 28.803 75.315 65.994h-41.725l77.404 105.208 77.403-105.208z" fill="#ebebf0"/><path d="m183.799 129.147 42.027 57.123c9.256-4.021 19.457-6.263 30.175-6.263v-70c-26.248-.001-50.896 6.966-72.202 19.14z" fill="#fff5f5"/></g></svg>