<svg xmlns="http://www.w3.org/2000/svg" width="23.387" height="19.681" viewBox="0 0 23.387 19.681"><defs><style>.a{fill:#fff;}</style></defs><g transform="translate(0 -6.348)"><path class="a" d="M14.113,9.726a4.25,4.25,0,0,1,1.978,3.157,3.428,3.428,0,1,0-1.978-3.157Zm-2.247,7.023a3.43,3.43,0,1,0-3.43-3.43A3.43,3.43,0,0,0,11.866,16.749Zm1.455.234H10.41a4.4,4.4,0,0,0-4.392,4.392v3.559l.009.056.245.077a19.99,19.99,0,0,0,5.971.963,12.258,12.258,0,0,0,5.214-.979l.229-.116h.025v-3.56A4.4,4.4,0,0,0,13.321,16.982ZM19,13.442H16.107a4.227,4.227,0,0,1-1.3,2.944A5.218,5.218,0,0,1,18.53,21.38v1.1a11.818,11.818,0,0,0,4.6-.967l.229-.116h.025v-3.56A4.4,4.4,0,0,0,19,13.442ZM5.847,13.208a3.407,3.407,0,0,0,1.824-.529,4.245,4.245,0,0,1,1.6-2.707c0-.064.01-.128.01-.193a3.43,3.43,0,1,0-3.429,3.429Zm3.08,3.178a4.23,4.23,0,0,1-1.3-2.928c-.107-.008-.213-.016-.322-.016H4.392A4.4,4.4,0,0,0,0,17.833v3.56l.009.055.245.077a20.59,20.59,0,0,0,4.946.93V21.38A5.219,5.219,0,0,1,8.928,16.386Z"/></g></svg>