<svg width="27" height="27" xmlns="http://www.w3.org/2000/svg" xmlns:svg="http://www.w3.org/2000/svg">
 <defs>
  <style>.a{fill:#007ee5;stroke:#007ee5;stroke-width:0.2px;}.b{fill:#fff;}.c{stroke:none;}.d{fill:none;}.e{filter:url(#a);}</style>
 </defs>
 <g>
  <title>Layer 1</title>
  <g stroke="null" id="svg_1">
   <g stroke="null" class="e" transform="matrix(1.6562956649954073,0,0,1.4532888224199332,-10.904909374855416,-8.950067401835977) " id="svg_2">
    <g stroke="null" class="a" id="svg_3">
     <circle stroke="null" class="c" cx="15.0022" cy="15" r="12" id="svg_4"/>
     <circle stroke="null" class="d" cx="15.0022" cy="15" r="11.9" id="svg_5"/>
    </g>
   </g>
   <g stroke="null" id="svg_6">
    <path stroke="null" class="b" d="m21.14143,7.20034l0,-1.6582a1.7888,1.56956 0 0 0 0.89772,-1.35592l0,-0.39384a0.44885,0.39384 0 0 0 -0.44885,-0.39384l-15.25945,0a0.44885,0.39384 0 0 0 -0.44885,0.39384l0,0.39384a1.7888,1.56956 0 0 0 0.89772,1.35592l0,1.6582a6.29392,5.52249 0 0 0 2.08362,4.09827l1.96106,1.5463l-1.96106,1.55502a6.29392,5.52249 0 0 0 -2.08031,4.09827l0,1.6582a1.7888,1.56956 0 0 0 -0.89772,1.35592l0,0.39384a0.44885,0.39384 0 0 0 0.44885,0.39384l15.25945,0a0.44885,0.39384 0 0 0 0.44885,-0.39384l0,-0.39384a1.7888,1.56956 0 0 0 -0.89772,-1.35592l0,-1.6582a6.29392,5.52249 0 0 0 -2.08031,-4.09827l-1.96768,-1.55502l1.96437,-1.55066a6.29392,5.52249 0 0 0 2.08031,-4.09392l0,0.00001zm-3.28112,2.92838l-2.70307,2.13488a0.89772,0.78768 0 0 0 0,1.16989l2.70473,2.13633a4.49684,3.94568 0 0 1 1.49067,2.92693l0,1.43876l-1.12297,0l-3.91051,-4.56478a0.46542,0.40837 0 0 0 -0.71718,0l-3.91051,4.56769l-1.12297,0l0,-1.43876a4.49518,3.94423 0 0 1 1.49067,-2.92693l2.70473,-2.13633a0.89772,0.78768 0 0 0 0,-1.16989l-2.70473,-2.13633a4.49518,3.94423 0 0 1 -1.49067,-2.92693l0,-1.43876l10.76592,0l0,1.43876a4.49684,3.94568 0 0 1 -1.4741,2.92547l-0.00001,0z" id="svg_7"/>
    <path stroke="null" class="b" d="m17.05369,8.91231l-6.18792,0a0.44885,0.39384 0 0 0 -0.33126,0.65834l3.12543,2.53017a0.44885,0.39384 0 0 0 0.60289,0l3.12377,-2.53017a0.44885,0.39384 0 0 0 -0.33126,-0.65834l-0.00166,0l-0.00001,0z" id="svg_8"/>
   </g>
  </g>
 </g>
</svg>