<svg xmlns="http://www.w3.org/2000/svg" xmlns:xlink="http://www.w3.org/1999/xlink" width="27" height="27" viewBox="0 0 27 27"><defs><style>.a{fill:#fff;stroke:#007ee5;stroke-width:0.2px;}.b{fill:#007ee5;}.c{stroke:none;}.d{fill:none;}.e{filter:url(#a);}</style><filter id="a" x="0" y="0" width="27" height="27" filterUnits="userSpaceOnUse"><feOffset input="SourceAlpha"/><feGaussianBlur stdDeviation="0.5" result="b"/><feFlood flood-opacity="0.161"/><feComposite operator="in" in2="b"/><feComposite in="SourceGraphic"/></filter></defs><g transform="translate(1.638 1.5)"><g class="e" transform="matrix(1, 0, 0, 1, -1.64, -1.5)"><g class="a" transform="translate(1.5 1.5)"><circle class="c" cx="12" cy="12" r="12"/><circle class="d" cx="12" cy="12" r="11.9"/></g></g><g transform="translate(5.492 6.519)"><path class="b" d="M6.842,6.147a.645.645,0,0,1-.116.376L3.3,11.655a.679.679,0,0,1-.568.308H.684A.686.686,0,0,1,0,11.278.646.646,0,0,1,.116,10.9L3.284,6.147.116,1.392A.646.646,0,0,1,0,1.016.686.686,0,0,1,.684.331H2.737A.679.679,0,0,1,3.3.639L6.726,5.771a.645.645,0,0,1,.116.376Zm0,0" transform="translate(0 -0.331)"/><path class="b" d="M220.174,6.147a.645.645,0,0,1-.116.376l-3.421,5.131a.679.679,0,0,1-.568.308h-2.053a.686.686,0,0,1-.684-.684.645.645,0,0,1,.116-.376l3.168-4.755-3.168-4.755a.645.645,0,0,1-.116-.376.686.686,0,0,1,.684-.684h2.053a.679.679,0,0,1,.568.308l3.421,5.131a.645.645,0,0,1,.116.376Zm0,0" transform="translate(-206.49 -0.331)"/></g></g></svg>