<svg xmlns="http://www.w3.org/2000/svg" width="28" height="28" viewBox="0 0 28 28">
  <g id="Group_9954" data-name="Group 9954" transform="translate(28 28) rotate(180)">
    <g id="Component_15_1213" data-name="Component 15 – 1213">
      <g id="Path_4122" data-name="Path 4122" fill="#ffffff">
        <path d="M14,0A14,14,0,1,1,0,14,14,14,0,0,1,14,0Z" stroke="none"/>
        <path d="M 14 1 C 10.5275707244873 1 7.262990951538086 2.352239608764648 4.807609558105469 4.807609558105469 C 2.352239608764648 7.262990951538086 1 10.5275707244873 1 14 C 1 17.47243118286133 2.352239608764648 20.73701095581055 4.807609558105469 23.19239044189453 C 7.262990951538086 25.64776039123535 10.5275707244873 27 14 27 C 17.47243118286133 27 20.73701095581055 25.64776039123535 23.19239044189453 23.19239044189453 C 25.64776039123535 20.73701095581055 27 17.47243118286133 27 14 C 27 10.5275707244873 25.64776039123535 7.262990951538086 23.19239044189453 4.807609558105469 C 20.73701095581055 2.352239608764648 17.47243118286133 1 14 1 M 14 0 C 21.73199081420898 0 28 6.268009185791016 28 14 C 28 21.73199081420898 21.73199081420898 28 14 28 C 6.268009185791016 28 0 21.73199081420898 0 14 C 0 6.268009185791016 6.268009185791016 0 14 0 Z" stroke="none" fill="#007ee5"/>
      </g>
      <path id="up-arrow_1_" data-name="up-arrow (1)" d="M20.2,12.294a.47.47,0,0,1-.773.277L14.558,8.517V20.664a.47.47,0,0,1-.939,0V8.517L8.754,12.571a.47.47,0,0,1-.6-.721l5.636-4.7c.014-.011.03-.014.045-.024a.509.509,0,0,1,.058-.038c.013-.006.026-.01.04-.015A.45.45,0,0,1,14,7.06a.472.472,0,0,1,.067-.011c.008,0,.014,0,.021,0s.013,0,.021,0a.438.438,0,0,1,.069.011.46.46,0,0,1,.068.016l.04.015a.451.451,0,0,1,.059.038.456.456,0,0,1,.044.024S20.224,12.126,20.2,12.294Zm-.172-.444" transform="translate(0 0.409)" fill="#007ee5" stroke="#007ee5" stroke-width="1"/>
    </g>
  </g>
</svg>
