<svg xmlns="http://www.w3.org/2000/svg" width="30" height="30" viewBox="0 0 30 30">
  <g id="Group_16455" data-name="Group 16455" transform="translate(173 -2349)">
    <circle id="Ellipse_2352" data-name="Ellipse 2352" cx="15" cy="15" r="15" transform="translate(-173 2349)" fill="#13ae8b" opacity="0.28"/>
    <g id="check" transform="translate(-173 2349)">
      <path id="Path_20984" data-name="Path 20984" d="M15,30A15,15,0,1,1,30,15,15.017,15.017,0,0,1,15,30ZM15,1.875A13.125,13.125,0,1,0,28.125,15,13.139,13.139,0,0,0,15,1.875Zm0,0" fill="#13ae8b"/>
      <path id="Path_20985" data-name="Path 20985" d="M151.672,180.653a.93.93,0,0,1-.663-.275l-4.062-4.062a.938.938,0,0,1,1.326-1.326l3.4,3.4,7.463-7.462a.938.938,0,0,1,1.326,1.326l-8.125,8.125a.939.939,0,0,1-.665.275Zm0,0" transform="translate(-138.078 -160.654)" fill="#13ae8b"/>
    </g>
  </g>
</svg>
