<svg xmlns="http://www.w3.org/2000/svg" width="36" height="36" viewBox="0 0 36 36"><defs><style>.a,.d{fill:none;}.a{stroke:#007ee5;}.b{fill:#007ee5;}.c{stroke:none;}</style></defs><g class="a"><circle class="c" cx="18" cy="18" r="18"/><circle class="d" cx="18" cy="18" r="17.5"/></g><g transform="translate(8.752 9.056)"><path class="b" d="M17.507,49.178a.472.472,0,0,0-.472.472v4.194a1.419,1.419,0,0,1-1.417,1.417H2.362A1.419,1.419,0,0,1,.945,53.845V41.534a1.419,1.419,0,0,1,1.417-1.417H6.556a.472.472,0,1,0,0-.945H2.362A2.365,2.365,0,0,0,0,41.534V53.845a2.365,2.365,0,0,0,2.362,2.362H15.617a2.365,2.365,0,0,0,2.362-2.362V49.65a.472.472,0,0,0-.472-.472Zm0,0" transform="translate(0 -37.334)"/><path class="b" d="M120.871.883a2.126,2.126,0,0,0-3.006,0l-8.428,8.428a.472.472,0,0,0-.121.208l-1.108,4a.472.472,0,0,0,.581.581l4-1.108a.472.472,0,0,0,.208-.121l8.428-8.428a2.128,2.128,0,0,0,0-3.006ZM110.466,9.618l6.9-6.9,2.225,2.225-6.9,6.9Zm-.444.892,1.777,1.777-2.458.681Zm10.736-6.734-.5.5-2.225-2.225.5-.5a1.181,1.181,0,0,1,1.67,0l.555.554A1.183,1.183,0,0,1,120.758,3.776Zm0,0" transform="translate(-103.079 -0.261)"/></g></svg>