<svg xmlns="http://www.w3.org/2000/svg" width="17.09" height="17.09" viewBox="0 0 17.09 17.09"><defs><style>.a{fill:#fff;}</style></defs><g transform="translate(0 0)"><path class="a" d="M10.382-36.463l6.329-6.329a1.292,1.292,0,0,0,0-1.829,1.292,1.292,0,0,0-1.829,0l-6.33,6.329-6.33-6.33a1.292,1.292,0,0,0-1.829,0,1.293,1.293,0,0,0,0,1.829l6.33,6.33L.38-30.119a1.292,1.292,0,0,0,0,1.829,1.288,1.288,0,0,0,.915.379,1.288,1.288,0,0,0,.914-.379l6.344-6.344,6.33,6.33a1.291,1.291,0,0,0,.915.379,1.29,1.29,0,0,0,.914-.379,1.292,1.292,0,0,0,0-1.829Z" transform="translate(-0.001 45)"/></g></svg>