<svg xmlns="http://www.w3.org/2000/svg" width="16.5" height="18" viewBox="0 0 16.5 18"><defs><style>.a{fill:#fff;}</style></defs><g transform="translate(-8)"><path class="a" d="M24.5,3H19.25V2.25A2.253,2.253,0,0,0,17,0H15.5a2.253,2.253,0,0,0-2.25,2.25V3H8V4.5h.829L10.106,16a2.248,2.248,0,0,0,2.236,2h7.815a2.248,2.248,0,0,0,2.236-2L23.671,4.5H24.5Zm-9.75-.75a.751.751,0,0,1,.75-.75H17a.751.751,0,0,1,.75.75V3h-3ZM20.9,15.833a.749.749,0,0,1-.745.667H12.343a.749.749,0,0,1-.745-.667L10.338,4.5H22.162Z"/><path class="a" d="M88,64h1.5v9H88Z" transform="translate(-72.5 -58)"/><path class="a" d="M0,0H9.031V1.5H0Z" transform="translate(18.506 14.933) rotate(-85.241)"/><path class="a" d="M0,0H1.5V9.031H0Z" transform="translate(11.755 6.065) rotate(-4.759)"/></g></svg>