<svg xmlns="http://www.w3.org/2000/svg" width="12.014" height="14.417" viewBox="0 0 12.014 14.417"><defs><style>.a{fill:#007ee5;}</style></defs><path class="a" d="M45.849,3.734,42.293.166a.565.565,0,0,0-.4-.166H35.06A1.061,1.061,0,0,0,34,1.06v12.3a1.061,1.061,0,0,0,1.06,1.06h9.894a1.061,1.061,0,0,0,1.06-1.06V10.283H44.883v3H35.131V1.131h6.184V3.638A1.073,1.073,0,0,0,42.388,4.7h2.5V7.668h1.131V4.133a.565.565,0,0,0-.165-.4Zm-3.4-1.8,1.642,1.635H42.445Z" transform="translate(-34 0)"/><path class="a" d="M342,240h1.131v.954H342Z" transform="translate(-331.117 -231.52)"/><path class="a" d="M101,185v2.9h1.8v-.671h-1.06V185Z" transform="translate(-98.633 -178.463)"/><path class="a" d="M153.284,184.926a1.354,1.354,0,0,0,1.337,1.483,1.378,1.378,0,0,0,1.374-1.532,1.352,1.352,0,0,0-1.337-1.479A1.394,1.394,0,0,0,153.284,184.926Zm1.964-.034c0,.422-.188.848-.608.848s-.6-.426-.6-.822.159-.852.608-.852C155.058,184.067,155.247,184.495,155.247,184.892Z" transform="translate(-149.069 -176.918)"/><path class="a" d="M238.522,184.5a1.435,1.435,0,0,1,.686.185l.192-.65a1.808,1.808,0,0,0-.871-.21,1.461,1.461,0,0,0-1.569,1.505,1.386,1.386,0,0,0,1.5,1.475,2.729,2.729,0,0,0,.977-.2v-1.539H238.2v.636h.53v.413a1.823,1.823,0,0,1-.241.016.734.734,0,0,1-.777-.818A.745.745,0,0,1,238.522,184.5Z" transform="translate(-229.788 -177.327)"/></svg>