<svg xmlns="http://www.w3.org/2000/svg" width="17.07" height="22.701" viewBox="0 0 17.07 22.701"><defs><style>.a{fill:#007ee5;}</style></defs><path class="a" d="M14.91,1.774H11.566a2.661,2.661,0,0,0-5.017,0H3.16A2.663,2.663,0,0,0,.5,4.434V20.041A2.663,2.663,0,0,0,3.16,22.7H14.913a2.664,2.664,0,0,0,2.658-2.66V4.434a2.663,2.663,0,0,0-2.66-2.66ZM8.171,3.547V2.66a.887.887,0,0,1,1.774,0v.887h1.774V5.276H6.4V3.547ZM15.8,20.041a.888.888,0,0,1-.885.887H3.16a.888.888,0,0,1-.887-.887V4.434a.888.888,0,0,1,.887-.887H4.623v3.5h8.868v-3.5H14.91a.888.888,0,0,1,.887.887ZM12.436,10.2l1.312,1.194L8.068,17.634,4.317,14.005,5.55,12.731l2.437,2.357Zm0,0" transform="translate(-0.5 0)"/></svg>