<svg xmlns="http://www.w3.org/2000/svg" width="23.195" height="24" viewBox="0 0 23.195 24"><defs><style>.a{fill:#007ee5;}</style></defs><g transform="translate(-15491.227 702.401)"><g transform="translate(15491.227 -692.238)"><g transform="translate(6.21 7.819)"><g transform="translate(0 0)"><path class="a" d="M193.724,332.734h-8.462a1.089,1.089,0,0,0-1.157,1v2.25a1.089,1.089,0,0,0,1.157,1h8.463a1.089,1.089,0,0,0,1.157-1v-2.25A1.089,1.089,0,0,0,193.724,332.734Zm-.33,2.966h-7.8v-1.677h7.8Z" transform="translate(-184.105 -332.734)"/></g></g><g transform="translate(0 0)"><path class="a" d="M22.967,63.506l.007,0L19.6,58.392a1.688,1.688,0,0,0-1.42-.67h-.641v-.475a.408.408,0,0,0-.449-.345H6.1a.408.408,0,0,0-.449.345v.475H5.011a1.688,1.688,0,0,0-1.42.67L.22,63.5l.007,0A1,1,0,0,0,0,64.131v5.4a1.43,1.43,0,0,0,1.574,1.208H21.621a1.43,1.43,0,0,0,1.574-1.208v-5.4A1,1,0,0,0,22.967,63.506Zm-5.424-5.018h.641a.628.628,0,0,1,.529.249l2.76,4.186H19.6V61.635a.408.408,0,0,0-.449-.345H18.59v-1.85a.408.408,0,0,0-.449-.345h-.6ZM18.7,61.98v.943H16.325a1.091,1.091,0,0,0-.945.468l-.648,1.1a.04.04,0,0,1-.035.017H8.5a.04.04,0,0,1-.035-.017l-.648-1.1a1.091,1.091,0,0,0-.945-.469H4.5V61.98ZM6.551,57.592H16.644v1.5H6.551Zm11.14,2.194v1.5H5.5v-1.5ZM4.483,58.738a.628.628,0,0,1,.529-.249h.641V59.1h-.6a.408.408,0,0,0-.449.345v1.85H4.049a.408.408,0,0,0-.449.345v1.288H1.722ZM21.621,69.972H1.574A.523.523,0,0,1,1,69.531v-5.4a.523.523,0,0,1,.575-.441h5.3a.04.04,0,0,1,.035.017l.648,1.1a1.091,1.091,0,0,0,.945.468h6.2a1.091,1.091,0,0,0,.945-.468l.648-1.1h0a.04.04,0,0,1,.035-.017h5.3a.523.523,0,0,1,.575.441v5.4h0A.522.522,0,0,1,21.621,69.972Z" transform="translate(0 -56.902)"/></g></g><rect class="a" width="4.664" height="10.086" rx="1" transform="translate(15500.434 -702.401)"/><path class="a" d="M43.089,30.15l-4.213,7.309L34.664,30.15Z" transform="translate(15463.904 -723.999)"/></g></svg>