<svg xmlns="http://www.w3.org/2000/svg" width="24.216" height="24.433" viewBox="0 0 24.216 24.433"><defs><style>.a,.b{fill:#000000 ;stroke:#fff;}.a{stroke-width:0.3px;}.b{stroke-width:0.4px;}</style></defs><g transform="translate(-3942.321 -5821.85)"><path class="a" d="M22.19,9.453a.8.8,0,0,0-.716-.39,3.487,3.487,0,0,0-1.825.6A6.089,6.089,0,0,0,17.8,11.707a.734.734,0,0,1-.507.371c0-.047,0-.1,0-.15,0-.108,0-.236,0-.378V3.834a1.394,1.394,0,0,0-2.789,0v5.4a.174.174,0,0,1-.349,0V1.394a1.394,1.394,0,0,0-2.789,0V9.237a.174.174,0,0,1-.349,0V2.963a1.22,1.22,0,0,0-2.44,0V9.934a.174.174,0,0,1-.349,0V5.577a1.222,1.222,0,0,0-2.443,0v9.48c.337,4.874,3.327,5.531,6.207,5.531a6.324,6.324,0,0,0,5.586-3.076c.136-.22.5-.8.94-1.483,1.09-1.713,2-3.151,2.138-3.407a4.217,4.217,0,0,1,.97-1.287,2.679,2.679,0,0,0,.637-.838A1.312,1.312,0,0,0,22.19,9.453Z" transform="translate(3944.006 5822)"/><g transform="translate(3951.676 5827.856) rotate(45)"><path class="b" d="M12.548,4.256,11.588,3.3a1.47,1.47,0,0,1-2.071,0,1.409,1.409,0,0,1-.426-1.036,1.41,1.41,0,0,1,.426-1.036L8.566.282a.984.984,0,0,0-1.378,0L.282,7.18a.983.983,0,0,0,0,1.378l.952.959a1.41,1.41,0,0,1,1.036-.426A1.409,1.409,0,0,1,3.3,9.517a1.471,1.471,0,0,1,0,2.071l.959.959a.984.984,0,0,0,1.378,0l6.906-6.913a.984.984,0,0,0,0-1.378ZM10.484,5.779,5.779,10.484a.5.5,0,0,1-.685,0L2.338,7.728a.478.478,0,0,1,0-.685L7.043,2.337a.5.5,0,0,1,.685,0l2.756,2.756a.478.478,0,0,1,0,.685Z" transform="translate(0 0)"/><path class="a" d="M4.355,0,6.761,2.406,2.406,6.761,0,4.355Z" transform="translate(3.031 3.03)"/></g></g></svg>