<svg xmlns="http://www.w3.org/2000/svg" width="20.062" height="20.062" viewBox="0 0 20.062 20.062"><defs><style>.a{fill:#000000;}</style></defs><g transform="translate(0 0)"><path class="a" d="M12.188-34.978l7.43-7.43a1.517,1.517,0,0,0,0-2.147,1.517,1.517,0,0,0-2.147,0l-7.43,7.43L2.61-44.555a1.517,1.517,0,0,0-2.147,0,1.518,1.518,0,0,0,0,2.147l7.431,7.43L.446-27.53a1.517,1.517,0,0,0,0,2.147,1.512,1.512,0,0,0,1.074.445,1.512,1.512,0,0,0,1.073-.445l7.447-7.447,7.43,7.43a1.516,1.516,0,0,0,1.074.445,1.514,1.514,0,0,0,1.073-.445,1.517,1.517,0,0,0,0-2.147Z" transform="translate(-0.001 45)"/></g></svg>