<svg xmlns="http://www.w3.org/2000/svg" width="22.178" height="22.037" viewBox="0 0 22.178 22.037"><defs><style>.a{opacity:0;}.b{fill:#575757;}.c,.d{fill:#000000 ;}.d{stroke:#fff;stroke-width:0.2px;}</style></defs><g transform="matrix(-0.259, -0.966, 0.966, -0.259, 8.379, 23.155)"><g class="a" transform="translate(7.982 -2.608) rotate(25)"><path class="b" d="M12.759,4.364l-.975-.976a1.486,1.486,0,0,1-2.106,0,1.452,1.452,0,0,1-.433-1.062,1.455,1.455,0,0,1,.434-1.063L8.71.286a.994.994,0,0,0-1.4,0L.284,7.367a1.016,1.016,0,0,0,0,1.414l.968.984A1.428,1.428,0,0,1,2.3,9.328a1.426,1.426,0,0,1,1.053.437,1.519,1.519,0,0,1,0,2.125l.975.984a.994.994,0,0,0,1.4,0l7.025-7.1a1.016,1.016,0,0,0,0-1.414Zm-2.1,1.563-4.786,4.83a.5.5,0,0,1-.7,0l-2.8-2.827a.494.494,0,0,1,0-.7L7.161,2.4a.5.5,0,0,1,.7,0l2.8,2.827a.493.493,0,0,1,0,.7Z" transform="translate(0 0.141)"/><path class="b" d="M4.273,0l2.36,2.357L2.359,6.624,0,4.268Z" transform="translate(3.139 3.407)"/></g><path class="b" d="M471.8,203.4l-1.154-1.156,1.2,3.13a1.78,1.78,0,0,1-1.021,2.3l-.365.142,1.318,1.318-.5.5-5.674-5.677a1.187,1.187,0,0,0-1.715,1.642l2.92,3.184a.356.356,0,0,1,.047.417,4.441,4.441,0,0,0,.09,4.562l.154.247h5.854V206.18A3.944,3.944,0,0,0,471.8,203.4Zm0,0" transform="translate(-453.865 -199.717)"/><g transform="translate(10.374 -6.14) rotate(41)"><path class="c" d="M5.421,0,8.415,2.992,2.992,8.414,0,5.42Z" transform="translate(4.053 4.282)"/><path class="c" d="M16.116,5.462,14.884,4.24a1.889,1.889,0,0,1-2.66,0,1.809,1.809,0,0,1-.547-1.33,1.812,1.812,0,0,1,.548-1.33L11,.359a1.263,1.263,0,0,0-1.77,0L.359,9.222a1.263,1.263,0,0,0,0,1.77l1.222,1.232a1.813,1.813,0,0,1,1.33-.548,1.809,1.809,0,0,1,1.33.547,1.889,1.889,0,0,1,0,2.66l1.232,1.232a1.263,1.263,0,0,0,1.77,0l8.873-8.883a1.263,1.263,0,0,0,0-1.77ZM13.465,7.419,7.419,13.464a.638.638,0,0,1-.88,0L3,9.926a.614.614,0,0,1,0-.88L9.046,3a.638.638,0,0,1,.88,0l3.539,3.539a.614.614,0,0,1,0,.88Z" transform="translate(0.026 0.255)"/></g><path class="d" d="M472.031,203.322l-.475.043a1.349,1.349,0,0,0-1.292,1.21c-.185,1.2,1.485,2.875.566,3.228l-1.08.424-1.131-1.093.7.642.315.42L465.6,204.09a1.187,1.187,0,0,0-1.715,1.642l2.92,3.184a.356.356,0,0,1,.047.417,4.441,4.441,0,0,0,.09,4.562l.154.247h5.854V206.3A4.253,4.253,0,0,0,472.031,203.322Zm-.02.075" transform="translate(-453.865 -199.842)"/><path class="c" d="M626.068,750H625v2.849h5.7V750Zm.356,1.424h-.712v-.712h.712Zm0,0" transform="translate(-611.662 -734.988)"/></g></svg>