<svg xmlns="http://www.w3.org/2000/svg" width="12.249" height="25.289" viewBox="0 0 12.249 25.289" transform='rotate(45)'><defs><style>.a{fill:#000000;}</style></defs><g transform="translate(-6.506 12.645) rotate(-45)"><path class="a" d="M6.7,6.7c-.485.485-2.35-.6-4.167-2.413S-.369.6.116.116s2.35.6,4.167,2.413S7.18,6.211,6.7,6.7" transform="translate(11.07)"/><path class="a" d="M0,5.7,3.948,0,5.7,1.755Z" transform="translate(0 12.179)"/><path class="a" d="M3.551,4.167C1.734,2.35.654.485,1.138,0-.618,1.757-.24,4.324,1.577,6.141s4.275,2.3,6.032.548l-.028-.029c-.635.231-2.352-.815-4.03-2.494" transform="translate(10.048 0.116)"/><path class="a" d="M5.659,6.047,7.719,3.988A5.638,5.638,0,0,1,5.264,2.495,5.356,5.356,0,0,1,3.811,0l-2.1,2.1L0,3.81A5.311,5.311,0,0,0,1.535,6.223,5.619,5.619,0,0,0,3.948,7.758Z" transform="translate(6.361 3.763)"/><g transform="translate(6.361 3.763)"><path class="a" d="M5.659,6.047,7.719,3.988A5.638,5.638,0,0,1,5.264,2.495,5.356,5.356,0,0,1,3.811,0l-2.1,2.1L0,3.81A5.311,5.311,0,0,0,1.535,6.223,5.619,5.619,0,0,0,3.948,7.758Z"/></g><path class="a" d="M8.639,6.8a4.764,4.764,0,0,0-.416-2.4l-.215.215A5.625,5.625,0,0,1,5.6,3.086,5.313,5.313,0,0,1,4.06.673L4.279.454,4.27.444A4.771,4.771,0,0,0,1.858.023,2.067,2.067,0,0,0,.184,2.932a11.337,11.337,0,0,0,2.33,3.215A11.33,11.33,0,0,0,5.73,8.477,2.067,2.067,0,0,0,8.639,6.8" transform="translate(2.301 6.9)"/></g></svg>