<svg xmlns="http://www.w3.org/2000/svg" width="20" height="20" viewBox="0 0 20 20"><defs><style>.a{fill:none;}.b{fill:#212121;}</style></defs><rect class="a" width="20" height="20"/><path class="b" d="M19.856,18.107l-4.121-4.121a8.55,8.55,0,0,0,1.748-5.245A8.688,8.688,0,0,0,8.741,0,8.688,8.688,0,0,0,0,8.741a8.688,8.688,0,0,0,8.741,8.741,8.55,8.55,0,0,0,5.245-1.748l4.121,4.121ZM2.5,8.741A6.183,6.183,0,0,1,8.741,2.5a6.183,6.183,0,0,1,6.244,6.244,6.183,6.183,0,0,1-6.244,6.244A6.183,6.183,0,0,1,2.5,8.741Z"/></svg>