<svg xmlns="http://www.w3.org/2000/svg" width="18.27" height="20.088" viewBox="0 0 18.27 20.088"><defs><style>.a{fill:#212121;}</style></defs><g transform="translate(-23.148)"><g transform="translate(23.149)"><path class="a" d="M30.69,15.783H28.538V.359A.345.345,0,0,0,28.179,0H26.027a.345.345,0,0,0-.359.359V15.783H23.516a.333.333,0,0,0-.336.224.341.341,0,0,0,.078.392l3.587,3.587a.4.4,0,0,0,.258.1.375.375,0,0,0,.258-.1l3.576-3.576a.42.42,0,0,0,.112-.269.345.345,0,0,0-.359-.359Z" transform="translate(-23.149)"/><path class="a" d="M301.5,299.693h-2.78a1.76,1.76,0,0,0-.336.022l-.157.022v-.022l.123-.123c.112-.134.191-.231.235-.291l4.136-5.941v-1h-6.356v2.567h1.345V293.64h2.6a1.417,1.417,0,0,0,.336-.034.768.768,0,0,0,.084-.006c.034,0,.058-.006.073-.006v.034l-.123.1a2.045,2.045,0,0,0-.235.3l-4.136,5.93v1.009h6.546v-2.612H301.5v1.334Z" transform="translate(-285.585 -292.362)"/><path class="a" d="M278.671,7.421,276.092,0h-1.816L271.7,7.421h-.784V8.609h3.217V7.421h-.841l.527-1.614h2.724l.527,1.614h-.84V8.609h3.228V7.421Zm-4.484-2.847.818-2.444a2.876,2.876,0,0,0,.084-.325c.026-.127.039-.194.039-.2l.034-.224h.045q0,.045.022.224l.135.527.807,2.444h-1.984Z" transform="translate(-261.186 11)"/></g></g></svg>