<svg xmlns="http://www.w3.org/2000/svg" width="18.316" height="20.462" viewBox="0 0 18.316 20.462"><defs><style>.a{fill:#fff;}</style></defs><g transform="translate(-24.165)"><g transform="translate(24.165)"><path class="a" d="M116.1,10.625a5.313,5.313,0,1,0-5.313-5.313A5.327,5.327,0,0,0,116.1,10.625Z" transform="translate(-106.945)"/><path class="a" d="M42.442,251.706a4.953,4.953,0,0,0-.534-.974,6.6,6.6,0,0,0-4.57-2.877.978.978,0,0,0-.673.162,5.663,5.663,0,0,1-6.682,0,.871.871,0,0,0-.673-.162,6.556,6.556,0,0,0-4.57,2.877,5.71,5.71,0,0,0-.534.974.493.493,0,0,0,.023.441,9.254,9.254,0,0,0,.626.928,8.818,8.818,0,0,0,1.067,1.206,13.923,13.923,0,0,0,1.067.928,10.58,10.58,0,0,0,12.621,0,10.206,10.206,0,0,0,1.067-.928,10.716,10.716,0,0,0,1.067-1.206,8.133,8.133,0,0,0,.626-.928A.4.4,0,0,0,42.442,251.706Z" transform="translate(-24.165 -236.835)"/></g></g></svg>