<svg xmlns="http://www.w3.org/2000/svg" width="17.791" height="19.337" viewBox="0 0 17.791 19.337"><defs><style>.a{fill:#fff;}</style></defs><g transform="translate(-26.57)"><g transform="translate(26.57)"><path class="a" d="M115.2,200.711a.711.711,0,0,0-.711-.711H107.17a.711.711,0,0,0,0,1.421h7.319A.711.711,0,0,0,115.2,200.711Z" transform="translate(-103.621 -192.894)"/><path class="a" d="M107.17,280a.711.711,0,1,0,0,1.421h4.445a.711.711,0,1,0,0-1.421Z" transform="translate(-103.621 -270.051)"/><path class="a" d="M31.789,16.77H29.412a1.423,1.423,0,0,1-1.421-1.421V2.842a1.423,1.423,0,0,1,1.421-1.421h8.737A1.423,1.423,0,0,1,39.57,2.842v4.37a.711.711,0,1,0,1.421,0V2.842A2.846,2.846,0,0,0,38.149,0H29.412A2.846,2.846,0,0,0,26.57,2.842V15.349a2.846,2.846,0,0,0,2.842,2.842h2.377a.711.711,0,0,0,0-1.421Z" transform="translate(-26.57 0)"/><path class="a" d="M114.489,120H107.17a.711.711,0,0,0,0,1.421h7.319a.711.711,0,0,0,0-1.421Z" transform="translate(-103.621 -115.736)"/><g transform="translate(8.18 9.726)"><path class="a" d="M9.4,3.969,8.3,3.7a3.639,3.639,0,0,0-.254-.606l.513-.855a.282.282,0,0,0-.042-.344l-.8-.8a.281.281,0,0,0-.344-.042l-.857.513a3.628,3.628,0,0,0-.6-.252L5.642.213A.282.282,0,0,0,5.369,0H4.243a.281.281,0,0,0-.273.213s-.188.769-.271,1.1a3.615,3.615,0,0,0-.639.272l-.888-.533a.282.282,0,0,0-.344.042l-.8.8a.282.282,0,0,0-.042.344l.549.918a3.629,3.629,0,0,0-.222.543l-1.1.272A.281.281,0,0,0,0,4.243V5.369a.281.281,0,0,0,.213.273l1.1.271a3.632,3.632,0,0,0,.259.616l-.492.819a.282.282,0,0,0,.042.344l.8.8a.283.283,0,0,0,.344.042l.821-.492A3.628,3.628,0,0,0,3.7,8.3l.271,1.1a.281.281,0,0,0,.273.213H5.369A.281.281,0,0,0,5.642,9.4l.271-1.1a3.577,3.577,0,0,0,.625-.265l.834.5a.282.282,0,0,0,.344-.042l.8-.8a.282.282,0,0,0,.042-.344L8.048,6.5A3.606,3.606,0,0,0,8.3,5.913l1.1-.271a.281.281,0,0,0,.213-.273V4.243A.281.281,0,0,0,9.4,3.969ZM4.806,6.777A1.971,1.971,0,1,1,6.777,4.806,1.973,1.973,0,0,1,4.806,6.777Z"/></g></g></g></svg>