<svg xmlns="http://www.w3.org/2000/svg" width="538.404" height="582.242" viewBox="0 0 538.404 582.242">
  <g id="Group_15010" data-name="Group 15010" transform="translate(-6846.922 4208.069)">
    <g id="Group_15008" data-name="Group 15008">
      <g id="Group_15012" data-name="Group 15012">
        <path id="repeat" d="M41.129,179.5H0l54.843,54.843L109.691,179.5H68.562a82.5,82.5,0,0,1,82.249-82.258,88.256,88.256,0,0,1,38.386,9.6l20.557-20.557a122.527,122.527,0,0,0-58.944-16.457A109.982,109.982,0,0,0,41.129,179.5Zm191.931,0a82.5,82.5,0,0,1-82.249,82.258,88.257,88.257,0,0,1-38.386-9.6L91.867,272.72a122.527,122.527,0,0,0,58.944,16.457A110,110,0,0,0,260.493,179.5h41.129l-54.843-54.843L191.931,179.5Z" transform="translate(7131.827 -4006.936) rotate(22)" fill="#FFFFFF"/>
        <g id="writing" transform="translate(6820.353 -4208.069)">
          <g id="Group_15007" data-name="Group 15007">
            <g id="Group_15006" data-name="Group 15006">
              <g id="Group_15011" data-name="Group 15011">
                <path id="Path_9402" data-name="Path 9402" d="M352.459,220a20,20,0,0,0-20-20h-206a20,20,0,0,0,0,40h206A20,20,0,0,0,352.459,220Z" fill="#FFFFFF"/>
                <path id="Path_9403" data-name="Path 9403" d="M126.459,280a20,20,0,0,0,0,40H251.57a20,20,0,0,0,0-40Z" fill="#FFFFFF"/>
                <path id="Path_9404" data-name="Path 9404" d="M222.459,472H106.57a40.045,40.045,0,0,1-40-40V80a40.045,40.045,0,0,1,40-40H352.459a40.045,40.045,0,0,1,40,40V251a20,20,0,0,0,40,0V80a80.091,80.091,0,0,0-80-80H106.57a80.091,80.091,0,0,0-80,80V432a80.091,80.091,0,0,0,80,80H222.459a20,20,0,0,0,0-40Z" fill="#FFFFFF"/>
                <path id="Path_9406" data-name="Path 9406" d="M332.459,120h-206a20,20,0,0,0,0,40h206a20,20,0,0,0,0-40Z" fill="#FFFFFF"/>
              </g>
            </g>
          </g>
        </g>
      </g>
    </g>
  </g>
</svg>
