<svg xmlns="http://www.w3.org/2000/svg" width="28" height="28" viewBox="0 0 28 28">
  <g id="Group_9954" data-name="Group 9954" transform="translate(28 28) rotate(180)">
    <g id="Component_15_1213" data-name="Component 15 – 1213">
      <g id="Path_4122" data-name="Path 4122">
        <path id="Path_7223" data-name="Path 7223" d="M14,0A14,14,0,1,1,0,14,14,14,0,0,1,14,0Z" fill="none"/>
        <path id="Path_7224" data-name="Path 7224" d="M14,1A13,13,0,0,0,4.808,23.192,13,13,0,0,0,23.192,4.808,12.915,12.915,0,0,0,14,1m0-1A14,14,0,1,1,0,14,14,14,0,0,1,14,0Z" fill="#fff"/>
      </g>
      <path id="up-arrow_1_" data-name="up-arrow (1)" d="M20.2,12.294a.47.47,0,0,1-.773.277L14.558,8.517V20.664a.47.47,0,0,1-.939,0V8.517L8.754,12.571a.47.47,0,0,1-.6-.721l5.636-4.7c.014-.011.03-.014.045-.024a.509.509,0,0,1,.058-.038c.013-.006.026-.01.04-.015A.45.45,0,0,1,14,7.06a.472.472,0,0,1,.067-.011h.042a.438.438,0,0,1,.069.011.46.46,0,0,1,.068.016l.04.015a.451.451,0,0,1,.059.038.456.456,0,0,1,.044.024S20.224,12.126,20.2,12.294Zm-.172-.444" transform="translate(0 0.409)" fill="#fff" stroke="#fff" stroke-width="1"/>
    </g>
  </g>
</svg>
