<svg xmlns="http://www.w3.org/2000/svg" width="293.615" height="330.324" viewBox="0 0 293.615 330.324">
  <g id="undraw_Image__folder_re_hgp7" transform="translate(-190.187 -0.002)">
    <path id="Path_9455" data-name="Path 9455" d="M624.225,213.013l-6.656-26.174-9.361-36.8-.531-2.077v-.005l-3.7-14.552a9.285,9.285,0,0,0-11.275-6.7l-24.592,6.253L414.456,172.037a9.285,9.285,0,0,0-6.7,11.275l5.3,20.855,13.475,52.976,5.068,19.932.26,1.021h1.123l-.26-1.021-4.844-19.059v-.005l-14.057-55.257-5.012-19.707a8.2,8.2,0,0,1,5.916-9.953l153.333-39,24.908-6.334a8.2,8.2,0,0,1,9.953,5.916l3.93,15.445.531,2.1,9.1,35.765,6.62,26.031.276,1.092h1.133Z" transform="translate(-217.281 -126.414)" fill="#ccc"/>
    <circle id="Ellipse_2117" data-name="Ellipse 2117" cx="26.316" cy="26.316" r="26.316" transform="translate(215.266 70.321)" fill="#f2f2f2"/>
    <path id="Path_9456" data-name="Path 9456" d="M547.617,262.724l1.261,1.092H528.839A8.2,8.2,0,0,0,520.652,272v62.454l-.291,14.787L507.555,337.79l-1.2.306-9.494-8.376a7.638,7.638,0,0,0-5.063-1.914h-24.98l.383-1.021,4.992-13.337,28.3-75.669,2.909-7.774a3.162,3.162,0,0,1,5.033-1.281l19.044,16.522,11.209,9.728Z" transform="translate(-246.339 -176.125)" fill="#e6e6e6"/>
    <path id="Path_9457" data-name="Path 9457" d="M730.754,261.041l1.266,1.092H670.7l.413-1.092,13.061-34.478a3.162,3.162,0,0,1,5.023-1.281l25.964,22.346,1.5,1.281Z" transform="translate(-346.156 -174.442)" fill="#e6e6e6"/>
    <path id="Path_9458" data-name="Path 9458" d="M809.472,317.066A15.455,15.455,0,0,0,797.13,323.2a10.176,10.176,0,0,0-14.2,9.345h42.023A15.482,15.482,0,0,0,809.472,317.066Z" transform="translate(-401.104 -219.754)" fill="#e6e6e6"/>
    <path id="Path_9459" data-name="Path 9459" d="M763.345,296.076H579.428a9.3,9.3,0,0,0-9,7.033v.005a9.256,9.256,0,0,0-.276,2.241v77.736l.6.526.495.439v-78.7a8.2,8.2,0,0,1,8.187-8.187H763.345a8.193,8.193,0,0,1,8.187,8.187V399.95h.521a5.325,5.325,0,0,1,.572.026v-94.62A9.293,9.293,0,0,0,763.345,296.076Z" transform="translate(-296.928 -209.477)" fill="#3f3d56"/>
    <circle id="Ellipse_2118" data-name="Ellipse 2118" cx="24.932" cy="24.932" r="24.932" transform="translate(291.376 108.049)" fill="#4285f4"/>
    <path id="Path_9460" data-name="Path 9460" d="M775.842,420.487h-171a8.753,8.753,0,0,1-5.742-2.169l-3.838-3.384.587-.847,1.062-1.531L643,346.2l4.732-6.814a3.163,3.163,0,0,1,5.2,0l14.383,20.707v.005l8.463,12.184,20.2,29.083,30.64-43.737a3.163,3.163,0,0,1,5.186,0l19.656,28.052,1.128,1.613,22.545,32.176Z" transform="translate(-309.221 -230.014)" fill="#3f3d56"/>
    <path id="Path_9461" data-name="Path 9461" d="M738.692,367.714a19.069,19.069,0,0,0-15.227,7.571,12.555,12.555,0,0,0-17.518,11.53h51.846a19.1,19.1,0,0,0-19.1-19.1Z" transform="translate(-363.413 -244.55)" fill="#ccc"/>
    <path id="Path_9462" data-name="Path 9462" d="M505.854,454.447l-6.349-5.594-.015-.01-.02-.015-.015-.015c-.2-.143-.4-.291-.592-.444-.051-.036-.1-.071-.143-.107l-.072-.056c-.01-.005-.015-.015-.026-.02-.143-.112-.291-.23-.434-.347-.072-.051-.138-.107-.209-.163-.194-.158-.388-.322-.582-.485s-.408-.347-.612-.526c-.005-.005-.016-.01-.02-.015-.041-.036-.077-.071-.117-.1-.194-.174-.388-.347-.582-.531-.163-.148-.327-.3-.485-.449s-.3-.276-.439-.424l-.031-.031c-.107-.1-.214-.209-.326-.322s-.209-.209-.311-.316-.209-.209-.306-.316l-.081-.082-.026-.026-.985-.873v1.363l.6.526.495.439,10.489,9.249.985.873.25.219.235-.342.352-.505Zm152.439,5.931c.015.337.041.679.066,1.021h36.1v-1.021Zm-152.439-5.931-6.349-5.594-.015-.01-.02-.015-.015-.015c-.2-.143-.4-.291-.592-.444-.051-.036-.1-.071-.143-.107l-.072-.056c-.01-.005-.015-.015-.026-.02-.143-.112-.291-.23-.434-.347-.072-.051-.138-.107-.209-.163-.194-.158-.388-.322-.582-.485s-.408-.347-.612-.526c-.005-.005-.016-.01-.02-.015-.041-.036-.077-.071-.117-.1-.194-.174-.388-.347-.582-.531-.163-.148-.327-.3-.485-.449s-.3-.276-.439-.424l-.031-.031c-.107-.1-.214-.209-.326-.322s-.209-.209-.311-.316-.209-.209-.306-.316l-.081-.082-.026-.026-.985-.873v1.363l.6.526.495.439,10.489,9.249.985.873.25.219.235-.342.352-.505Zm179.9,5.931H658.293c.015.337.041.679.066,1.021h28.113Zm-179.9-5.931-6.349-5.594-.015-.01-.02-.015-.015-.015c-.2-.143-.4-.291-.592-.444-.051-.036-.1-.071-.143-.107l-.072-.056c-.01-.005-.015-.015-.026-.02-.143-.112-.291-.23-.434-.347-.072-.051-.138-.107-.209-.163-.194-.158-.388-.322-.582-.485s-.408-.347-.612-.526c-.005-.005-.016-.01-.02-.015-.041-.036-.077-.071-.117-.1-.194-.174-.388-.347-.582-.531-.163-.148-.327-.3-.485-.449s-.3-.276-.439-.424l-.031-.031c-.107-.1-.214-.209-.326-.322s-.209-.209-.311-.316-.209-.209-.306-.316l-.081-.082-.026-.026-.985-.873v1.363l.6.526.495.439,10.489,9.249.985.873.25.219.235-.342.352-.505Zm-24.786-21.856-10.019-8.835a8.663,8.663,0,0,0-5.737-2.169H435.294l.26,1.021h29.757a7.639,7.639,0,0,1,5.063,1.914l9.494,8.376,13.2,11.643v-1.363ZM695.548,460.4c-.189-.015-.378-.02-.572-.02H515.47a7.628,7.628,0,0,1-4.752-1.654c-.107-.082-.209-.168-.311-.26l-3.563-3.144-.368-.322-.623-.551-6.349-5.594-.015-.01-.02-.015-.015-.015-4.242-3.746-1.047-.924-.082-.066-.026-.026-.985-.873-12-10.586-10.019-8.835a8.664,8.664,0,0,0-5.737-2.169H421.4a8.689,8.689,0,0,0-8.677,8.677V592.574a8.689,8.689,0,0,0,8.677,8.677H694.976a8.689,8.689,0,0,0,8.677-8.677V469.055a8.691,8.691,0,0,0-8.105-8.657Zm7.084,132.176a7.665,7.665,0,0,1-7.656,7.656H421.4a7.666,7.666,0,0,1-7.656-7.656V430.263a7.665,7.665,0,0,1,7.656-7.656h43.916a7.639,7.639,0,0,1,5.063,1.914l9.494,8.376,13.2,11.643.6.526.495.439,10.489,9.249.985.873.25.22,3.838,3.384a8.753,8.753,0,0,0,5.742,2.169H694.976a5.277,5.277,0,0,1,.572.025,7.662,7.662,0,0,1,7.084,7.631ZM505.854,454.447l-6.349-5.594-.015-.01-.02-.015-.015-.015c-.2-.143-.4-.291-.592-.444-.051-.036-.1-.071-.143-.107l-.072-.056c-.01-.005-.015-.015-.026-.02-.143-.112-.291-.23-.434-.347-.072-.051-.138-.107-.209-.163-.194-.158-.388-.322-.582-.485s-.408-.347-.612-.526c-.005-.005-.016-.01-.02-.015-.041-.036-.077-.071-.117-.1-.194-.173-.388-.347-.582-.531-.163-.148-.327-.3-.485-.449s-.3-.276-.439-.424l-.031-.031c-.107-.1-.214-.209-.326-.322s-.209-.209-.311-.316-.209-.209-.306-.317l-.081-.082-.026-.026-.985-.873v1.363l.6.526.495.439,10.489,9.249.985.873.25.22.235-.342.352-.505Zm152.439,5.931c.015.337.041.679.066,1.021h36.1v-1.021Zm-152.439-5.931-6.349-5.594-.015-.01-.02-.015-.015-.015c-.2-.143-.4-.291-.592-.444-.051-.036-.1-.071-.143-.107l-.072-.056c-.01-.005-.015-.015-.026-.02-.143-.112-.291-.23-.434-.347-.072-.051-.138-.107-.209-.163-.194-.158-.388-.322-.582-.485s-.408-.347-.612-.526c-.005-.005-.016-.01-.02-.015-.041-.036-.077-.071-.117-.1-.194-.173-.388-.347-.582-.531-.163-.148-.327-.3-.485-.449s-.3-.276-.439-.424l-.031-.031c-.107-.1-.214-.209-.326-.322s-.209-.209-.311-.316-.209-.209-.306-.317l-.081-.082-.026-.026-.985-.873v1.363l.6.526.495.439,10.489,9.249.985.873.25.22.235-.342.352-.505Zm0,0-6.349-5.594-.015-.01-.02-.015-.015-.015c-.2-.143-.4-.291-.592-.444-.051-.036-.1-.071-.143-.107l-.072-.056c-.01-.005-.015-.015-.026-.02-.143-.112-.291-.23-.434-.347-.072-.051-.138-.107-.209-.163-.194-.158-.388-.322-.582-.485s-.408-.347-.612-.526c-.005-.005-.016-.01-.02-.015-.041-.036-.077-.071-.117-.1-.194-.173-.388-.347-.582-.531-.163-.148-.327-.3-.485-.449s-.3-.276-.439-.424l-.031-.031c-.107-.1-.214-.209-.326-.322s-.209-.209-.311-.316-.209-.209-.306-.317l-.081-.082-.026-.026-.985-.873v1.363l.6.526.495.439,10.489,9.249.985.873.25.22.235-.342.352-.505Zm179.9,5.931H658.293c.015.337.041.679.066,1.021h28.113Z" transform="translate(-219.852 -270.926)" fill="#3f3d56"/>
    <path id="Path_9475" data-name="Path 9475" d="M692.486,604.286H444.344a8.135,8.135,0,0,1-8.125-8.125V448.942a8.135,8.135,0,0,1,8.125-8.125A7.2,7.2,0,0,1,451.531,448V586.463a7.624,7.624,0,0,0,7.615,7.615h232.5a5.168,5.168,0,0,1,5.061,3.873,4.961,4.961,0,0,1-2.2,5.709A3.877,3.877,0,0,1,692.486,604.286Z" transform="translate(-231.357 -280.34)" fill="#f2f2f2"/>
  </g>
</svg>
