<svg xmlns="http://www.w3.org/2000/svg" width="20.316" height="20.505" viewBox="0 0 20.316 20.505"><defs><style>.a,.b{fill:#fff;}.b{stroke:#007ee5;stroke-width:0.5px;}.c{fill:#007ee5;}.d{stroke:none;}.e{fill:none;}</style></defs><g transform="translate(-599.338 -107.495)"><g transform="translate(575.173 107.495)"><g transform="translate(24.165)"><path class="a" d="M116.1,10.625a5.313,5.313,0,1,0-5.313-5.313A5.327,5.327,0,0,0,116.1,10.625Z" transform="translate(-106.945)"/><path class="a" d="M42.442,251.706a4.953,4.953,0,0,0-.534-.974,6.6,6.6,0,0,0-4.57-2.877.978.978,0,0,0-.673.162,5.663,5.663,0,0,1-6.682,0,.871.871,0,0,0-.673-.162,6.556,6.556,0,0,0-4.57,2.877,5.71,5.71,0,0,0-.534.974.493.493,0,0,0,.023.441,9.254,9.254,0,0,0,.626.928,8.818,8.818,0,0,0,1.067,1.206,13.923,13.923,0,0,0,1.067.928,10.58,10.58,0,0,0,12.621,0,10.206,10.206,0,0,0,1.067-.928,10.716,10.716,0,0,0,1.067-1.206,8.133,8.133,0,0,0,.626-.928A.4.4,0,0,0,42.442,251.706Z" transform="translate(-24.165 -236.835)"/></g></g><g transform="translate(38.654 33)"><g class="b" transform="translate(573 87)"><circle class="d" cx="4" cy="4" r="4"/><circle class="e" cx="4" cy="4" r="3.75"/></g><g transform="translate(574.333 88.333)"><g transform="translate(0 0)"><path class="c" d="M2.68,0A2.68,2.68,0,1,0,5.36,2.68,2.683,2.683,0,0,0,2.68,0Zm1.5,1.975-1.713,1.7A.264.264,0,0,1,2.1,3.68l-.907-.826a.272.272,0,0,1-.02-.376.266.266,0,0,1,.376-.013l.719.658L3.795,1.592a.271.271,0,0,1,.383.383Z" transform="translate(0 0)"/></g></g></g></g></svg>