<svg xmlns="http://www.w3.org/2000/svg" width="23.167" height="26.775" viewBox="0 0 23.167 26.775"><defs><style>.a{fill:#fff;}</style></defs><g transform="matrix(0.966, -0.259, 0.259, 0.966, 0, 4.617)"><g transform="translate(0 0)"><path class="a" d="M.059,10.667a8.756,8.756,0,0,0,8.588,9.765v2.354a.169.169,0,0,0,.271.121l4.843-3.558a.149.149,0,0,0,0-.238L8.922,15.552a.168.168,0,0,0-.271.121v2.349a6.34,6.34,0,0,1-5.735-3.885,6.262,6.262,0,0,1,.892-6.384,1.209,1.209,0,1,0-1.9-1.494A8.635,8.635,0,0,0,.059,10.667ZM14.04,15.187A6.262,6.262,0,0,0,14.932,8.8,6.332,6.332,0,0,0,9.2,4.918V7.267a.169.169,0,0,1-.271.121L4.084,3.83a.149.149,0,0,1,0-.238L8.922.034a.168.168,0,0,1,.271.121V2.509a8.756,8.756,0,0,1,8.588,9.765,8.59,8.59,0,0,1-1.845,4.408,1.207,1.207,0,1,1-1.9-1.494Z"/></g></g></svg>