<svg xmlns="http://www.w3.org/2000/svg" width="18.055" height="18.055" viewBox="0 0 18.055 18.055"><defs><style>.a{fill:#fff;}</style></defs><g transform="translate(0 0)"><path class="a" d="M10.969-35.98l6.687-6.687a1.365,1.365,0,0,0,0-1.932,1.365,1.365,0,0,0-1.932,0L9.037-37.912,2.349-44.6a1.365,1.365,0,0,0-1.932,0,1.366,1.366,0,0,0,0,1.932L7.1-35.98l-6.7,6.7a1.365,1.365,0,0,0,0,1.932,1.361,1.361,0,0,0,.966.4,1.361,1.361,0,0,0,.966-.4l6.7-6.7,6.687,6.687a1.364,1.364,0,0,0,.966.4,1.363,1.363,0,0,0,.966-.4,1.365,1.365,0,0,0,0-1.932Z" transform="translate(-0.001 45)"/></g></svg>