<svg xmlns="http://www.w3.org/2000/svg" width="20.108" height="10.779" viewBox="0 0 20.108 10.779"><defs><style>.a{fill:#fff;}</style></defs><g transform="translate(-6.354 -35.49)"><g transform="translate(6.354 35.49)"><path class="a" d="M16.554,36.3c-4.906,0-9.657,4.681-9.847,4.889a.709.709,0,0,0,0,1c.207.207,4.941,4.889,9.847,4.889S26.211,42.4,26.4,42.191a.709.709,0,0,0,0-1c-.19-.207-4.923-4.889-9.847-4.889Zm0,9.346c-3.438,0-6.979-2.8-8.309-3.973C9.575,40.5,13.116,37.7,16.554,37.7s6.979,2.8,8.309,3.973C23.533,42.847,19.992,45.646,16.554,45.646Z" transform="translate(-6.5 -36.3)"/><path class="a" d="M50,55.157A2.557,2.557,0,1,0,52.557,52.6,2.562,2.562,0,0,0,50,55.157Zm3.68,0a1.14,1.14,0,1,1-1.14-1.14A1.162,1.162,0,0,1,53.68,55.157Z" transform="translate(-42.485 -49.784)"/></g></g></svg>