<svg xmlns="http://www.w3.org/2000/svg" width="40" height="40" viewBox="0 0 40 40"><defs><style>.a{fill:#007ee5;}.b{fill:#fff;}</style></defs><g transform="translate(-180.285 -26.539)"><circle class="a" cx="20" cy="20" r="20" transform="translate(180.285 26.539)"/><path class="b" d="M19.625,14.608a.653.653,0,1,0-.924-.924l-3.456,3.456a3.086,3.086,0,0,0,4.364,4.364l7.8-7.8a4.308,4.308,0,0,0-6.1-6.084L13.525,15.4a5.541,5.541,0,1,0,7.836,7.836l3.456-3.456a.653.653,0,0,0-.924-.924l-3.456,3.456a4.235,4.235,0,1,1-5.989-5.989L22.237,8.54a2.963,2.963,0,0,1,2.118-.876,3,3,0,0,1,2.118.876,2.963,2.963,0,0,1,.876,2.118,3,3,0,0,1-.876,2.118l-7.8,7.8a1.8,1.8,0,0,1-2.517,0,1.769,1.769,0,0,1,0-2.517l3.472-3.456Z" transform="translate(179.903 31.288)"/></g></svg>