<svg xmlns="http://www.w3.org/2000/svg" width="29.2" height="18.2" viewBox="0 0 29.2 18.2">
  <g id="group" transform="translate(0.1 0.1)">
    <g id="Group_14394" data-name="Group 14394">
      <path id="Path_9454" data-name="Path 9454" d="M25.081,100.17a3.218,3.218,0,0,0,1.412-2.648,3.312,3.312,0,0,0-6.622,0,3.2,3.2,0,0,0,1.412,2.648,5.767,5.767,0,0,0-1.957,1.122,7.476,7.476,0,0,0-2.685-1.43,4.091,4.091,0,0,0,2.026-3.511,4.2,4.2,0,0,0-8.389,0A4.079,4.079,0,0,0,12.3,99.862a7.539,7.539,0,0,0-2.657,1.414,5.815,5.815,0,0,0-1.934-1.1,3.218,3.218,0,0,0,1.412-2.648,3.272,3.272,0,0,0-3.311-3.237A3.272,3.272,0,0,0,2.5,97.528a3.2,3.2,0,0,0,1.412,2.648A5.693,5.693,0,0,0,0,105.544v.37a.024.024,0,0,0,.023.022H7.041a7.377,7.377,0,0,0-.063.948v.381a3.018,3.018,0,0,0,3.053,2.984h8.894a3.018,3.018,0,0,0,3.053-2.984v-.381a7.377,7.377,0,0,0-.063-.948h7.064a.024.024,0,0,0,.023-.022v-.37A5.715,5.715,0,0,0,25.081,100.17Zm-4.292-2.653a2.393,2.393,0,1,1,2.439,2.339h-.092A2.362,2.362,0,0,1,20.789,97.517ZM11.183,96.35a3.277,3.277,0,1,1,3.466,3.2H14.27A3.24,3.24,0,0,1,11.183,96.35ZM3.4,97.517a2.393,2.393,0,1,1,2.439,2.339H5.75A2.366,2.366,0,0,1,3.4,97.517Zm3.8,7.516H.93a4.862,4.862,0,0,1,4.831-4.28H5.83a4.917,4.917,0,0,1,3.127,1.139A7.318,7.318,0,0,0,7.2,105.033Zm13.846,2.232a2.114,2.114,0,0,1-2.135,2.087H10.019a2.114,2.114,0,0,1-2.135-2.087v-.381a6.513,6.513,0,0,1,6.386-6.434c.063.006.132.006.2.006s.132,0,.2-.006a6.513,6.513,0,0,1,6.386,6.434Zm.683-2.232a7.3,7.3,0,0,0-1.739-3.119,4.94,4.94,0,0,1,3.156-1.161h.069a4.862,4.862,0,0,1,4.831,4.28Z" transform="translate(0 -92.25)" fill="#007ee5" stroke="#fff" stroke-width="0.2"/>
    </g>
  </g>
</svg>
