<svg xmlns="http://www.w3.org/2000/svg" xmlns:xlink="http://www.w3.org/1999/xlink" width="34" height="34" viewBox="0 0 34 34"><defs><style>.a{fill:#fff;stroke:#707070;}.b{clip-path:url(#a);}.c{fill:#e6af78;}.d{fill:#eff2fa;}.e{fill:#d29b6e;}.f{fill:#f0c087;}.g{fill:#e4eaf6;}.h{fill:#5b5d6e;}.i{fill:#515262;}.j{fill:#785550;}.k{fill:#694b4b;}.l{fill:#5a4146;}</style><clipPath id="a"><circle class="a" cx="17" cy="17" r="17" transform="translate(741.16 56)"/></clipPath></defs><g class="b" transform="translate(-741.16 -56)"><g transform="translate(741.16 56)"><path class="c" d="M22.276,24.035v-4.1H11.725v4.1L17,28.724Z"/><path class="d" d="M30.433,25.954,23.18,24.248a1.164,1.164,0,0,1-.3-.123L17,27.552l-5.646-3.593a1.168,1.168,0,0,1-.534.288L3.567,25.954a2.345,2.345,0,0,0-1.808,2.282v4.591A1.172,1.172,0,0,0,2.932,34H31.068a1.172,1.172,0,0,0,1.172-1.172V28.237A2.344,2.344,0,0,0,30.433,25.954Z"/><path class="e" d="M11.725,19.932v4.329c6.646,2.394,10.551-3.6,10.551-3.6v-.731H11.725Z"/><path class="f" d="M9.38,6.45l.511,11.238a3.517,3.517,0,0,0,1.4,2.654l2.424,1.818a3.517,3.517,0,0,0,2.11.7h2.345a3.517,3.517,0,0,0,2.11-.7l2.424-1.818a3.517,3.517,0,0,0,1.4-2.654L24.62,6.45Z"/><path class="c" d="M15.242,8.794c2.345,0,5.862-.586,6.7-2.345H9.38l.511,11.238a3.517,3.517,0,0,0,1.4,2.654l2.424,1.818a3.517,3.517,0,0,0,2.11.7H17c-1.172,0-3.517-2.345-3.517-5.276V10.553A1.872,1.872,0,0,1,15.242,8.794Z"/><path class="g" d="M6.063,30.2l-3.8-3.412a2.341,2.341,0,0,0-.5,1.453v4.591A1.172,1.172,0,0,0,2.932,34h4.1V32.376A2.931,2.931,0,0,0,6.063,30.2Z"/><path class="g" d="M27.937,30.2l3.8-3.412a2.341,2.341,0,0,1,.5,1.453v4.591A1.172,1.172,0,0,1,31.068,34h-4.1V32.376A2.931,2.931,0,0,1,27.937,30.2Z"/><path class="h" d="M18.466,34H15.535l.366-5.276h2.2Z"/><path class="i" d="M18.466,27.552H15.535v1.1a.655.655,0,0,0,.655.655h1.62a.655.655,0,0,0,.655-.655v-1.1Z"/><path class="g" d="M11.642,22.73,17,27.552a20.218,20.218,0,0,0-3.352,2.284.752.752,0,0,1-1.165-.263L9.966,24.035l.8-1.194A.586.586,0,0,1,11.642,22.73Z"/><path class="g" d="M22.358,22.73,17,27.552a20.218,20.218,0,0,1,3.352,2.284.752.752,0,0,0,1.165-.263l2.517-5.538-.8-1.194A.586.586,0,0,0,22.358,22.73Z"/><path class="j" d="M20.554,2.566,21.1,6.45c2.508.5,2.87,4.438,2.922,5.563a1.156,1.156,0,0,0,.185.573l.957,1.485a5.616,5.616,0,0,1,1.172-4.1S26.855.222,20.554,2.566Z"/><path class="f" d="M25.756,13.82l-.662,2.647A.7.7,0,0,1,24.41,17h0a.7.7,0,0,1-.7-.617l-.338-2.707a1.214,1.214,0,0,1,1.2-1.365h0A1.214,1.214,0,0,1,25.756,13.82Z"/><path class="k" d="M9.942,1.516l.867.592C6.889,5,7.621,9.967,7.621,9.967c1.172,1.172,1.172,4.1,1.172,4.1L9.966,12.9s-.452-3.387,1.759-4.689C13.776,7,15.571,7.622,17.4,7.622c4.909,0,6.283-1.85,6.045-4.1C23.325,2.353,21.542-.075,17,0A19.736,19.736,0,0,0,9.942,1.516Z"/><path class="l" d="M9.6,7.109a6.439,6.439,0,0,1,1.209-5C6.889,5,7.621,9.967,7.621,9.967c1.172,1.172,1.172,4.1,1.172,4.1L9.966,12.9s-.452-3.387,1.759-4.689C13.776,7,15.571,7.622,17.4,7.622a14.4,14.4,0,0,0,2.114-.145C15.736,7.6,13.508,4.74,9.6,7.109Z"/><path class="c" d="M8.245,13.82l.662,2.647A.7.7,0,0,0,9.59,17h0a.7.7,0,0,0,.7-.617l.338-2.707a1.214,1.214,0,0,0-1.2-1.365h0A1.214,1.214,0,0,0,8.245,13.82Z"/><path class="g" d="M24.62,32.828h-4.1a.586.586,0,0,0-.586.586V34h5.276v-.586A.586.586,0,0,0,24.62,32.828Z"/></g></g></svg>