<svg xmlns="http://www.w3.org/2000/svg" xmlns:xlink="http://www.w3.org/1999/xlink" width="521.971" height="395.662" viewBox="0 0 521.971 395.662"><defs><style>.a{fill:#e0e0e0;}.b{fill:url(#a);}.c{fill:#f5f5f5;}.d{fill:#fff;}.e{fill:#007ee5;}.f{fill:#ff5252;}.g{fill:#ff0;}.h{fill:#69f0ae;}.i{fill:url(#c);}.j{fill:url(#f);}.k{fill:#dbdbdb;}</style><linearGradient id="a" x1="0.5" y1="1" x2="0.5" gradientUnits="objectBoundingBox"><stop offset="0" stop-color="gray" stop-opacity="0.251"/><stop offset="0.54" stop-color="gray" stop-opacity="0.122"/><stop offset="1" stop-color="gray" stop-opacity="0.102"/></linearGradient><linearGradient id="c" x1="0.5" y1="1" x2="0.5" gradientUnits="objectBoundingBox"><stop offset="0" stop-opacity="0.122"/><stop offset="0.55" stop-opacity="0.09"/><stop offset="1" stop-opacity="0.02"/></linearGradient><linearGradient id="f" x1="0.499" y1="0.984" x2="0.499" y2="0.01" gradientUnits="objectBoundingBox"><stop offset="0.01" stop-color="gray" stop-opacity="0.251"/><stop offset="0.54" stop-color="gray" stop-opacity="0.122"/><stop offset="1" stop-color="gray" stop-opacity="0.102"/></linearGradient></defs><g transform="translate(0.021)"><path class="a" d="M468.006,582.68s11.085,74.817,76.467,99.756H279.61c65.383-24.939,76.467-99.756,76.467-99.756Z" transform="translate(-188.661 -314.436)"/><rect class="b" width="267.363" height="15.802" transform="translate(89.617 367.984)"/><rect class="c" width="264.864" height="12.188" transform="translate(90.949 367.984)"/><path class="b" d="M550.175,77.15H114.006A5.9,5.9,0,0,0,108.17,83.1V360.017a10.994,10.994,0,0,0,10.894,11.1h426.06a10.994,10.994,0,0,0,10.894-11.1V83.1A5.9,5.9,0,0,0,550.175,77.15Z" transform="translate(-108.19 -77.15)"/><path class="c" d="M554.412,331.137H117.22V94.964a5.7,5.7,0,0,1,5.72-5.694H548.7a5.7,5.7,0,0,1,5.709,5.694Z" transform="translate(-112.438 -82.839)"/><path class="d" d="M543.8,584.987H127.882a10.612,10.612,0,0,1-10.612-10.612V545.09H554.436v29.258A10.612,10.612,0,0,1,543.8,584.987Z" transform="translate(-112.462 -296.792)"/><rect class="e" width="395.629" height="184.809" transform="translate(26.924 36.464)"/><rect class="a" width="396.16" height="16.279" transform="translate(26.394 26.022)"/><circle class="f" cx="4.776" cy="4.776" r="4.776" transform="translate(30.235 29.566)"/><circle class="g" cx="4.776" cy="4.776" r="4.776" transform="translate(41.378 29.566)"/><circle class="h" cx="4.776" cy="4.776" r="4.776" transform="translate(52.521 29.566)"/><path class="i" d="M350.633,107.83,279,237.418H422.267Z" transform="translate(-130.967 -50.613)"/><path class="d" d="M358.28,126.64,295.29,241.254H421.269Z" transform="translate(-138.614 -59.442)"/><circle class="b" cx="7.694" cy="7.694" r="7.694" transform="translate(211.972 162.178)"/><circle class="e" cx="6.367" cy="6.367" r="6.367" transform="translate(213.299 163.505)"/><rect class="b" width="4.245" height="45.633" transform="translate(217.544 111.769)"/><rect class="e" width="2.653" height="44.572" transform="translate(218.34 112.035)"/><rect class="j" width="132.724" height="238.211" rx="10" transform="translate(388.893 157.452) rotate(-0.08)"/><rect class="d" width="126.611" height="226.654" rx="10" transform="translate(391.953 159.909) rotate(-0.08)"/><rect class="e" width="98.021" height="184.448" transform="translate(406.27 175.914) rotate(-0.08)"/><ellipse class="k" cx="7.816" cy="7.816" rx="7.816" ry="7.816" transform="translate(447.733 365.775) rotate(-0.08)"/><circle class="k" cx="1.565" cy="1.565" r="1.565" transform="translate(438.568 166.397)"/><rect class="k" width="24.228" height="2.345" rx="1.173" transform="translate(447.453 166.083) rotate(-0.08)"/><path class="i" d="M827.535,400.85,792.79,463.707h69.49Z" transform="translate(-372.131 -188.152)"/><path class="d" d="M831.243,409.97,800.69,465.563H861.8Z" transform="translate(-375.839 -192.432)"/><circle class="b" cx="3.73" cy="3.73" r="3.73" transform="translate(451.674 263.611)"/><circle class="e" cx="3.088" cy="3.088" r="3.088" transform="translate(452.316 264.253)"/><rect class="b" width="2.059" height="22.132" transform="translate(454.375 239.16)"/><rect class="e" width="1.289" height="21.617" transform="translate(454.762 239.288)"/></g></svg>